<svg width="24" height="22" viewBox="0 0 24 22" fill="none" xmlns="http://www.w3.org/2000/svg">
<path fill-rule="evenodd" clip-rule="evenodd" d="M11.9998 0C16.5878 0 20.5258 2.827 22.1728 6.827L23.9998 5V11H17.9998L20.6108 8.389C19.4888 4.696 16.0548 2 11.9998 2C7.7258 2 4.1448 4.997 3.2318 9H1.1908C2.1348 3.888 6.6178 0 11.9998 0ZM16.3379 7.5229L11.9999 10.1249L7.6619 7.5229C8.0169 7.2019 8.4829 6.9999 8.9999 6.9999H14.9999C15.5169 6.9999 15.9829 7.2019 16.3379 7.5229ZM11.9996 11.7494C12.1336 11.7494 12.2666 11.7144 12.3856 11.6434L16.9886 8.8814C16.9895 8.89963 16.9918 8.91707 16.994 8.93434C16.9968 8.9559 16.9996 8.97719 16.9996 8.9994V12.9994C16.9996 14.1044 16.1046 14.9994 14.9996 14.9994H8.9996C7.8956 14.9994 6.9996 14.1044 6.9996 12.9994V8.9994C6.9996 8.97745 7.00261 8.9564 7.00566 8.93509C7.00817 8.91758 7.0107 8.8999 7.0116 8.8814L11.6146 11.6434C11.7326 11.7144 11.8656 11.7494 11.9996 11.7494ZM20.768 12.9999C19.855 17.0019 16.274 19.9999 12 19.9999C7.945 19.9999 4.511 17.3039 3.389 13.6109L6 10.9999H0V16.9999L1.827 15.1729C3.474 19.1739 7.412 21.9999 12 21.9999C17.382 21.9999 21.865 18.1119 22.809 12.9999H20.768Z" fill="#688AF5"/>
</svg>
