<svg width="20" height="27" viewBox="0 0 20 27" fill="none" xmlns="http://www.w3.org/2000/svg">
<path fill-rule="evenodd" clip-rule="evenodd" d="M4.0005 8.0018C4.0005 11.3398 7.8705 15.6588 10.0005 17.6558C12.1305 15.6588 16.0005 11.3398 16.0005 8.0018C16.0005 4.6928 13.3095 2.0018 10.0005 2.0018C6.6915 2.0018 4.0005 4.6928 4.0005 8.0018ZM2.0005 8.0018C2.0005 3.5898 5.5895 0.00180054 10.0005 0.00180054C14.4115 0.00180054 18.0005 3.5898 18.0005 8.0018C18.0005 12.4138 13.3545 17.4438 10.0005 20.3188C6.6445 17.4418 2.0005 12.4118 2.0005 8.0018ZM9.0005 4.0525V3.0015H11.0005V4.0015H13.0005V6.0015H9.5005C9.2245 6.0015 9.0005 6.2265 9.0005 6.5015C9.0005 6.7775 9.2245 7.0015 9.5005 7.0015H10.5005C11.8785 7.0015 13.0005 8.1235 13.0005 9.5015C13.0005 10.7085 12.1405 11.7185 11.0005 11.9505V13.0015H9.0005V12.0015H7.0005V10.0015H10.5005C10.7765 10.0015 11.0005 9.7775 11.0005 9.5015C11.0005 9.2265 10.7765 9.0015 10.5005 9.0015H9.5005C8.1225 9.0015 7.0005 7.8795 7.0005 6.5015C7.0005 5.2945 7.8605 4.2845 9.0005 4.0525Z" fill="#688AF5"/>
<path fill-rule="evenodd" clip-rule="evenodd" d="M17.4849 26.0029H2.51789C1.84489 26.0029 1.22189 25.6679 0.848894 25.1049C0.476894 24.5389 0.413894 23.8329 0.680894 23.2129L2.82289 18.2149C3.13689 17.4789 3.85889 17.0029 4.66089 17.0029H5.48489V19.0029H4.66089L2.51789 24.0029H17.4849L15.3419 19.0029H14.4849V17.0029H15.3419C16.1439 17.0029 16.8659 17.4789 17.1809 18.2159L19.3229 23.2149C19.5889 23.8329 19.5259 24.5389 19.1549 25.1029C18.7819 25.6679 18.1579 26.0029 17.4849 26.0029" fill="#688AF5"/>
</svg>
