<svg width="22" height="20" viewBox="0 0 22 20" fill="none" xmlns="http://www.w3.org/2000/svg">
<path fill-rule="evenodd" clip-rule="evenodd" d="M14 16.918C15.208 16.216 16.216 15.209 16.918 14H14V16.918ZM8 17.737C8.641 17.903 9.308 18 10 18C10.691 18 11.359 17.903 12 17.737V14H8V17.737ZM3.082 14C3.784 15.209 4.791 16.216 6 16.918V14H3.082ZM2.263 8C2.097 8.641 2 9.309 2 10C2 10.692 2.097 11.36 2.263 12H6V8H2.263ZM6 3.083C4.791 3.785 3.784 4.791 3.082 6H6V3.083ZM17.736 12C17.902 11.36 18 10.692 18 10H20C20 15.515 15.514 20 10 20C4.485 20 0 15.515 0 10C0 4.486 4.485 0 10 0V2C9.308 2 8.641 2.098 8 2.263V6H10V8H8V12H12V10H14V12H17.736ZM21.9121 1.5203C22.1411 2.0343 21.9111 2.6363 21.3961 2.8613L18.6641 4.0623L16.4731 8.0663L14.6761 9.0003L16.1991 5.0473L14.0001 6.0603L10.0001 4.0563L11.5841 3.1443L13.6851 4.0823L16.1161 3.0003H16.0001L12.8811 0.9763L14.4881 0.1443L17.8091 2.2473L20.6151 0.9983C21.1171 0.7963 21.6891 1.0293 21.9121 1.5203Z" fill="#688AF5"/>
</svg>
