<svg width="20" height="20" viewBox="0 0 20 20" fill="none" xmlns="http://www.w3.org/2000/svg">
<path fill-rule="evenodd" clip-rule="evenodd" d="M2 18.0005H18V2.00049H2V18.0005ZM20 18.0005C20 19.1035 19.103 20.0005 18 20.0005H2C0.897 20.0005 0 19.1035 0 18.0005L0 2.00049C0 0.898488 0.897 0.000488281 2 0.000488281L18 0.000488281C19.103 0.000488281 20 0.898488 20 2.00049V18.0005V18.0005ZM10 12.0005C11.103 12.0005 12 11.1035 12 10.0005C12 8.89849 11.103 8.00049 10 8.00049C8.897 8.00049 8 8.89849 8 10.0005C8 11.1035 8.897 12.0005 10 12.0005ZM16 11.0005H13.858C13.764 11.3635 13.62 11.7045 13.433 12.0195L14.95 13.5365L13.536 14.9505L12.019 13.4335C11.704 13.6205 11.363 13.7645 11 13.8585V16.0005H9V13.8585C8.637 13.7645 8.296 13.6205 7.981 13.4335L6.464 14.9505L5.05 13.5365L6.567 12.0195C6.38 11.7045 6.236 11.3635 6.142 11.0005H4V9.00049H6.142C6.236 8.63749 6.38 8.29649 6.567 7.98149L5.05 6.46449L6.464 5.05049L7.981 6.56749C8.296 6.38049 8.637 6.23649 9 6.14249V4.00049H11V6.14249C11.363 6.23649 11.704 6.38049 12.019 6.56749L13.536 5.05049L14.95 6.46449L13.433 7.98149C13.62 8.29649 13.764 8.63749 13.858 9.00049H16V11.0005Z" fill="#688AF5"/>
</svg>
