<svg width="17" height="19" viewBox="0 0 17 19" fill="none" xmlns="http://www.w3.org/2000/svg">
<path fill-rule="evenodd" clip-rule="evenodd" d="M8 10.0005C5.243 10.0005 3 7.75749 3 5.00049C3 2.24349 5.243 0.000488281 8 0.000488281C10.757 0.000488281 13 2.24349 13 5.00049H11C11 3.34649 9.654 2.00049 8 2.00049C6.346 2.00049 5 3.34649 5 5.00049C5 6.65449 6.346 8.00049 8 8.00049V10.0005ZM12 10.0005H9V6.00049H13V7.82949C14.164 7.41649 15 6.30449 15 5.00049V3.00049H17V5.00049C17 7.75749 14.757 10.0005 12 10.0005ZM2 17.0005H14C14 14.6455 11.533 13.0005 8 13.0005C4.467 13.0005 2 14.6455 2 17.0005ZM16 19.0005H0V17.0005C0 13.4675 3.29 11.0005 8 11.0005C12.71 11.0005 16 13.4675 16 17.0005V19.0005Z" fill="#688AF5"/>
</svg>
