<svg width="24" height="24" viewBox="0 0 24 24" fill="none" xmlns="http://www.w3.org/2000/svg">
<path fill-rule="evenodd" clip-rule="evenodd" d="M19 20V14H18V18C18 18.552 17.552 19 17 19H7C6.448 19 6 18.552 6 18V14H5V20H19ZM8 14V17H16V14H8ZM20 12C20.552 12 21 12.449 21 13V21C21 21.552 20.552 22 20 22H4C3.448 22 3 21.552 3 21V13C3 12.449 3.448 12 4 12H20ZM13 2V5H11V2H13ZM6.707 5.2934L5.293 6.7064L3.293 4.7064L4.707 3.2934L6.707 5.2934ZM20.707 4.7065L18.707 6.7065L17.293 5.2935L19.293 3.2935L20.707 4.7065ZM4 11.0019C4 9.3479 5.346 8.0019 7 8.0019C7.307 8.0019 7.61 8.0509 7.9 8.1429C8.821 6.8169 10.336 6.0019 12 6.0019C13.664 6.0019 15.179 6.8169 16.1 8.1429C16.39 8.0509 16.693 8.0019 17 8.0019C18.654 8.0019 20 9.3479 20 11.0019H18C18 10.4509 17.551 10.0019 17 10.0019C16.704 10.0019 16.484 10.1379 16.352 10.2519C16.108 10.4619 15.779 10.5419 15.466 10.4649C15.153 10.3899 14.896 10.1699 14.774 9.8709C14.311 8.7359 13.222 8.0019 12 8.0019C10.778 8.0019 9.689 8.7359 9.226 9.8709C9.104 10.1699 8.847 10.3899 8.534 10.4649C8.221 10.5419 7.892 10.4619 7.647 10.2519C7.516 10.1379 7.296 10.0019 7 10.0019C6.449 10.0019 6 10.4509 6 11.0019H4ZM12 14.5C12.552 14.5 13 14.949 13 15.5C13 16.053 12.552 16.5 12 16.5C11.448 16.5 11 16.053 11 15.5C11 14.949 11.448 14.5 12 14.5Z" fill="white"/>
</svg>
