<svg width="24" height="24" viewBox="0 0 24 24" fill="none" xmlns="http://www.w3.org/2000/svg">
<path fill-rule="evenodd" clip-rule="evenodd" d="M8 19.0005V10.0005H16L16.001 19.0005H8ZM16 8.00049H13V4.00049H16V2.00049H8V4.00049H11V8.00049H8C6.897 8.00049 6 8.89649 6 10.0005V19.0005C6 20.1035 6.897 21.0005 8 21.0005V22.0005H10V21.0005H14V22.0005H16V21.0005C17.103 21.0005 18 20.1035 18 19.0005V10.0005C18 8.89649 17.103 8.00049 16 8.00049V8.00049Z" fill="white"/>
<path fill-rule="evenodd" clip-rule="evenodd" d="M11 13.0005H13V14.0005H15V11.0005H11V13.0005Z" fill="white"/>
</svg>
