<svg width="262" height="90" viewBox="0 0 262 90" fill="none" xmlns="http://www.w3.org/2000/svg">
<path d="M231.383 72.8837H245.323C246.864 72.8489 248.354 72.3263 249.58 71.3911L260.394 63.7188C260.394 63.7188 261.695 62.9928 261.887 60.8438C262.079 58.6949 261.736 57.2022 260.812 56.5924L260.865 49.9481C260.233 48.5885 259.475 47.2915 258.6 46.0742C258.026 45.1967 257.75 44.1586 257.81 43.1122L257.914 33.68C257.939 32.5967 257.782 31.5169 257.45 30.4857C256.597 29.4051 255.64 28.411 254.592 27.5178L230.408 9.90228L235.571 5.76121C235.571 5.76121 191.762 -1.39418 141.97 0.24366C141.97 0.24366 118.355 -0.679804 94.583 14.1479L75.3122 26.1355C75.3122 26.1355 33.1058 25.9555 6.55768 40.2198C6.55768 40.2198 2.64312 43.7452 2.25979 53.2528C1.87647 62.7605 2.25979 70.6767 3.94991 73.6271C5.64002 76.5776 22.4192 77.8553 22.4192 77.8553L65.1018 78.0063H228.787" fill="url(#paint0_linear)"/>
<g style="mix-blend-mode:multiply">
<g style="mix-blend-mode:multiply">
<path d="M240.095 31.7342L239.851 32.1349C239.752 32.3138 239.714 32.5204 239.744 32.7228C239.773 32.9253 239.868 33.1125 240.014 33.2559L249.225 41.5612C249.59 41.8579 250.04 42.0309 250.509 42.0549H253.268C253.735 42.0215 254.172 41.8142 254.493 41.4741L256.816 38.8083C257.095 38.5186 257.453 38.3167 257.844 38.2275L257.897 33.5811C257.909 32.7262 257.824 31.8726 257.641 31.0372H241.216C240.988 31.0593 240.769 31.1336 240.574 31.2545C240.38 31.3754 240.216 31.5396 240.095 31.7342V31.7342Z" fill="#231F20"/>
</g>
</g>
<path d="M77.2983 38.7155H61.3613C60.7224 38.7155 60.6817 38.518 61.2742 38.2799L70.5669 34.5396C71.2863 34.2763 72.0431 34.1292 72.8087 34.104H78.1811C78.4892 34.104 78.7846 34.2264 79.0025 34.4442C79.2203 34.6621 79.3427 34.9575 79.3427 35.2656L78.9071 38.7155H77.2983Z" fill="#010101"/>
<path d="M78.5007 78.0122C78.5007 77.716 78.4077 48.3916 78.5007 39.0002C78.5936 28.7259 87.6424 24.2654 87.7353 24.2247L87.985 24.7474C87.8979 24.7881 79.1744 29.1034 79.0814 39.006C78.9885 48.3916 79.0814 77.7102 79.0814 78.0064L78.5007 78.0122Z" fill="#242628"/>
<path d="M142.568 26.0195H141.988V78.0123H142.568V26.0195Z" fill="#242628"/>
<path d="M206.369 46.8988H205.788V27.9474C205.788 27.2679 204.388 26.0715 203.511 25.479L203.86 24.9738C204.115 25.148 206.386 26.7161 206.392 27.9242L206.369 46.8988Z" fill="#242628"/>
<g style="mix-blend-mode:multiply">
<path d="M230.408 9.90218L235.571 5.76111L221.864 9.90218L222.033 10.0067L227.841 13.567L237.093 19.2414C239.997 20.9837 242.721 23.034 246.159 23.4928C247.169 23.6264 248.308 23.8819 249.121 23.4928L230.408 9.90218Z" fill="#231F20"/>
</g>
<path d="M91.8067 65.4553C89.3673 65.5075 89.3092 65.0719 91.6789 64.4853L93.6013 64.0033C96.4666 63.3414 99.3796 62.9064 102.313 62.7023L177.143 58.8284C179.576 58.7006 179.878 59.6531 177.811 60.9483L177.201 61.3258C174.69 62.7468 171.891 63.5827 169.012 63.771L91.8067 65.4553Z" fill="#1B1A1D"/>
<path d="M225.093 72.936H235.954C236.636 69.232 236.471 65.4217 235.472 61.7904C234.472 58.1592 232.665 54.8009 230.184 51.967C227.703 49.1331 224.614 46.8969 221.147 45.4259C217.68 43.9549 213.925 43.287 210.163 43.4724C206.402 43.6578 202.731 44.6915 199.425 46.4963C196.119 48.3011 193.265 50.8301 191.075 53.8942C188.884 56.9582 187.416 60.4779 186.778 64.1899C186.141 67.9018 186.351 71.7098 187.394 75.3289C187.666 76.2369 187.984 77.1305 188.346 78.0064C190.594 78.0064 191.111 78.0064 192.772 78.0064L225.093 77.9541V72.936Z" fill="#010101"/>
<path d="M233.434 67.8484C233.435 72.2289 232.137 76.5114 229.704 80.1541C227.271 83.7968 223.812 86.6362 219.765 88.3131C215.719 89.99 211.265 90.429 206.969 89.5747C202.673 88.7204 198.726 86.6111 195.629 83.5136C192.531 80.4161 190.422 76.4696 189.567 72.1732C188.713 67.8768 189.152 63.4236 190.829 59.3767C192.506 55.3299 195.345 51.8713 198.988 49.4383C202.631 47.0053 206.913 45.7073 211.294 45.7085C217.165 45.71 222.796 48.0431 226.947 52.1948C231.099 56.3465 233.432 61.977 233.434 67.8484V67.8484Z" fill="#010101"/>
<path d="M227.394 67.8482C227.395 71.034 226.451 74.1486 224.682 76.7981C222.912 79.4475 220.397 81.5127 217.454 82.7324C214.511 83.9521 211.272 84.2715 208.147 83.6503C205.023 83.029 202.153 81.495 199.9 79.2423C197.647 76.9895 196.113 74.1193 195.492 70.9946C194.871 67.8699 195.19 64.6311 196.41 61.688C197.629 58.7449 199.695 56.2296 202.344 54.4604C204.993 52.6911 208.108 51.7474 211.294 51.7485C215.564 51.7485 219.659 53.4447 222.678 56.464C225.697 59.4833 227.394 63.5783 227.394 67.8482V67.8482Z" fill="white"/>
<path d="M217.067 67.8481C217.068 68.9915 216.73 70.1096 216.095 71.0608C215.461 72.0121 214.558 72.7537 213.502 73.1918C212.446 73.6299 211.284 73.7448 210.162 73.522C209.04 73.2992 208.01 72.7487 207.202 71.9402C206.393 71.1316 205.843 70.1014 205.62 68.9798C205.397 67.8583 205.512 66.6959 205.95 65.6397C206.388 64.5835 207.13 63.681 208.081 63.0465C209.032 62.4119 210.15 62.0738 211.294 62.075C212.825 62.075 214.293 62.6832 215.376 63.7659C216.459 64.8485 217.067 66.3169 217.067 67.8481Z" fill="#65676F"/>
<path d="M260.824 56.5286L260.865 52.1204H249.063C248.906 52.1204 248.749 52.1204 248.598 52.1204C247.797 52.1901 247.53 53.1368 247.588 53.8163C247.64 54.531 247.954 55.2012 248.47 55.6981C249.371 56.5112 250.399 56.5286 251.543 56.5286H260.836H260.824Z" fill="#65676F"/>
<path d="M49.6703 45.4877L49.1708 45.1973L50.6111 42.7347C51.4473 41.483 52.5827 40.4599 53.9144 39.758C55.246 39.0562 56.7318 38.6979 58.237 38.7156H78.7507V39.2964H58.237C56.8345 39.2898 55.4518 39.6267 54.2095 40.2777C52.9673 40.9287 51.9034 41.874 51.1106 43.0309L49.6703 45.4877Z" fill="#242628"/>
<path d="M45.5292 43.2865C41.6437 43.2855 37.8113 44.19 34.3363 45.9284C30.8613 47.6668 27.8393 50.1911 25.51 53.3011C23.1808 56.4111 21.6084 60.0212 20.9177 63.8449C20.2269 67.6685 20.4368 71.6006 21.5308 75.329C21.779 76.1872 22.0757 77.0307 22.4194 77.8554C23.9527 77.9367 25.4569 77.9832 26.9089 78.0064H68.5752C70.1771 74.2046 70.8136 70.0655 70.428 65.958C70.0424 61.8505 68.6466 57.9021 66.3651 54.4649C64.0835 51.0276 60.9871 48.2081 57.3517 46.2578C53.7162 44.3074 49.6548 43.2866 45.5292 43.2865V43.2865Z" fill="#010101"/>
<path d="M45.4244 89.9939C57.6551 89.9939 67.5701 80.079 67.5701 67.8482C67.5701 55.6175 57.6551 45.7025 45.4244 45.7025C33.1937 45.7025 23.2787 55.6175 23.2787 67.8482C23.2787 80.079 33.1937 89.9939 45.4244 89.9939Z" fill="#010101"/>
<path d="M61.53 67.8482C61.5311 71.0338 60.5876 74.1482 58.8186 76.7975C57.0496 79.4468 54.5346 81.5119 51.5919 82.7318C48.6491 83.9517 45.4106 84.2715 42.2861 83.6507C39.1616 83.0299 36.2913 81.4965 34.0383 79.2443C31.7854 76.9922 30.2509 74.1224 29.629 70.9981C29.0071 67.8738 29.3257 64.6353 30.5445 61.692C31.7633 58.7488 33.8276 56.2331 36.4762 54.4632C39.1249 52.6932 42.2389 51.7485 45.4245 51.7485C49.695 51.7485 53.7906 53.4446 56.8108 56.4637C59.831 59.4828 61.5285 63.5778 61.53 67.8482V67.8482Z" fill="white"/>
<path d="M51.1979 67.8481C51.1979 68.9899 50.8594 70.106 50.225 71.0554C49.5906 72.0048 48.689 72.7448 47.6341 73.1817C46.5792 73.6187 45.4184 73.733 44.2986 73.5102C43.1787 73.2875 42.15 72.7376 41.3426 71.9303C40.5353 71.1229 39.9854 70.0942 39.7627 68.9743C39.5399 67.8545 39.6542 66.6937 40.0912 65.6388C40.5281 64.5839 41.2681 63.6823 42.2175 63.0479C43.1669 62.4135 44.283 62.075 45.4248 62.075C46.956 62.075 48.4244 62.6832 49.507 63.7659C50.5897 64.8485 51.1979 66.3169 51.1979 67.8481Z" fill="#65676F"/>
<path d="M0.0353464 58.5439C0.0353464 58.5439 -0.191164 57.3184 1.41764 57.3823H7.80638C7.80638 57.3823 9.64751 57.4636 9.67654 59.8158L8.13163 63.9917C8.13163 63.9917 8.00386 64.4215 6.85388 64.4215H0.958811C0.711577 64.3804 0.485419 64.2571 0.316822 64.0717C0.148225 63.8862 0.0470218 63.6494 0.0295385 63.3993C-0.0401569 62.5049 0.0353464 58.5439 0.0353464 58.5439Z" fill="#010101"/>
<path d="M2.62542 49.4894C2.62542 49.4894 2.5383 42.7289 6.20893 40.1967C12.4989 35.8988 24.7944 36.8919 24.7944 36.8919C24.7944 36.8919 27.1176 37.1998 25.956 39.7959L19.2478 47.2708C19.2478 47.2708 18.1733 49.1119 14.7989 49.4952C11.4245 49.8785 2.62542 49.4894 2.62542 49.4894Z" fill="white"/>
<g style="mix-blend-mode:multiply">
<path d="M216.835 21.4889L216.451 21.1404L207.042 12.684C205.527 11.325 203.987 9.50128 202.245 8.43262C199.434 6.69023 196.002 6.82381 192.848 6.44049C189.595 6.05329 186.337 5.70481 183.073 5.39506C171.919 4.25996 160.715 3.69585 149.503 3.70494C143.625 3.73979 137.736 3.97792 131.893 4.59356C127.723 4.97892 123.599 5.75676 119.575 6.91674C115.66 8.07833 109.701 11.2262 106.048 13.1254C101.081 15.7227 96.2503 18.5723 91.5745 21.6631C90.744 22.1975 89.9135 22.7434 89.0887 23.2894L87.1721 24.5265C87.087 24.5768 87.0173 24.6494 86.9702 24.7363C86.9232 24.8233 86.9006 24.9214 86.9049 25.0201C86.9049 26.0191 87.8052 26.0075 88.4499 26.0075H91.801L98.5847 21.576C99.6547 20.9448 100.863 20.5858 102.104 20.5306H107.21C107.717 20.5321 108.203 20.7347 108.561 21.094C108.919 21.4533 109.12 21.9399 109.12 22.4472V26.0075H214.407C215.476 26.0075 217.044 26.1411 217.985 25.4267C219.646 24.2244 217.892 22.453 216.835 21.4889Z" fill="#231F20"/>
</g>
<defs>
<linearGradient id="paint0_linear" x1="132.038" y1="20.1824" x2="132.038" y2="72.1693" gradientUnits="userSpaceOnUse">
<stop offset="0.01" stop-color="#2F3137"/>
<stop offset="0.49" stop-color="#2B2C31"/>
<stop offset="0.97" stop-color="#222225"/>
</linearGradient>
</defs>
</svg>
