<svg width="24" height="24" viewBox="0 0 24 24" fill="none" xmlns="http://www.w3.org/2000/svg">
<path fill-rule="evenodd" clip-rule="evenodd" d="M21.0909 3.90476C22.1447 3.90476 23 4.7581 23 5.80952V20.0952C23 21.1467 22.1447 22 21.0909 22H3.90909C2.85527 22 2 21.1467 2 20.0952V5.80952C2 4.7581 2.85527 3.90476 3.90909 3.90476H5.81818V5.80952H3.90909V20.0952H21.0909V5.80952H18.2273V7.71429H16.3182V2H18.2273V3.90476H21.0909ZM8.68182 5.80952V7.71429H6.77273V2H8.68182V3.90476H15.3636V5.80952H8.68182ZM9.63636 9.61857V13.4281H5.81818V9.61857H9.63636ZM14.4091 9.61857V13.4281H10.5909V9.61857H14.4091ZM15.3636 13.4281V9.61857H19.1818V13.4281H15.3636ZM5.81818 18.19V14.3805H9.63636V18.19H5.81818ZM10.5909 18.19V14.3805H14.4091V18.19H10.5909Z" fill="white"/>
</svg>
