<svg width="24" height="24" viewBox="0 0 24 24" fill="none" xmlns="http://www.w3.org/2000/svg">
<path fill-rule="evenodd" clip-rule="evenodd" d="M12 2.00049C17.514 2.00049 22 6.48649 22 12.0005C22 17.5155 17.514 22.0005 12 22.0005C6.486 22.0005 2 17.5155 2 12.0005H4C4 16.4115 7.589 20.0005 12 20.0005C16.411 20.0005 20 16.4115 20 12.0005C20 7.58949 16.411 4.00049 12 4.00049C9.828 4.00049 7.824 4.87149 6.351 6.35149L9 9.00049H3V3.00049L4.938 4.93849C6.78 3.08949 9.285 2.00049 12 2.00049ZM13.8557 8.99999L15 10.1443L13.1443 12L15 13.8557L13.8557 15L12 13.1443L10.1443 15L9 13.8557L10.8557 12L9 10.1443L10.1443 8.99999L12 10.8557L13.8557 8.99999Z" fill="white"/>
</svg>
