<svg width="9" height="9" viewBox="0 0 9 9" fill="none" xmlns="http://www.w3.org/2000/svg">
<path fill-rule="evenodd" clip-rule="evenodd" d="M6.31215 4.89798L8.6667 2.54343C9.06179 2.14834 9.05969 1.51727 8.66917 1.12674C8.27592 0.733497 7.64438 0.737326 7.25249 1.12921L4.89793 3.48377L2.54338 1.12921C2.14829 0.734125 1.51722 0.73622 1.1267 1.12674C0.733451 1.51999 0.73728 2.15154 1.12917 2.54343L3.48372 4.89798L1.12917 7.25253C0.734079 7.64762 0.736174 8.27869 1.1267 8.66922C1.51995 9.06246 2.15149 9.05863 2.54338 8.66675L4.89793 6.31219L7.25249 8.66675C7.64758 9.06184 8.27865 9.05974 8.66917 8.66922C9.06242 8.27597 9.05859 7.64442 8.6667 7.25253L6.31215 4.89798V4.89798Z" fill="#9B9B9B"/>
</svg>
