<?xml version="1.0" encoding="UTF-8"?>
<svg width="20px" height="20px" viewBox="0 0 20 20" version="1.1" xmlns="http://www.w3.org/2000/svg" xmlns:xlink="http://www.w3.org/1999/xlink">
    <!-- Generator: Sketch 61.2 (89653) - https://sketch.com -->
    <title>Shape</title>
    <desc>Created with Sketch.</desc>
    <g id="Page-1" stroke="none" stroke-width="1" fill="none" fill-rule="evenodd">
        <g id="3-2_Order_Class_B" transform="translate(-22.000000, -534.000000)" fill="#688AF5">
            <g id="Icon" transform="translate(20.000000, 532.000000)">
                <path d="M12,4 C7.5888,4 4,7.5888 4,12 C4,16.4112 7.5888,20 12,20 C16.4112,20 20,16.4112 20,12 C20,7.5888 16.4112,4 12,4 Z M12,22 C6.48571429,22 2,17.5142857 2,12 C2,6.48571429 6.48571429,2 12,2 C17.5142857,2 22,6.48571429 22,12 C22,17.5142857 17.5142857,22 12,22 Z M16,13 L11,13 L11,7 L13.5,7 L13.5,10.6 L16,10.6 L16,13 Z" id="Shape"></path>
            </g>
        </g>
    </g>
</svg>