<svg width="262" height="82" viewBox="0 0 262 82" fill="none" xmlns="http://www.w3.org/2000/svg">
<path d="M153.836 4.45459e-05C142.478 -0.0089064 131.16 1.33111 120.118 3.99194C109.656 6.5138 99.5302 10.2691 89.9535 15.1789C86.1844 17.1176 82.5477 19.3153 78.8448 21.3744C69.982 26.2936 65.7793 27.4737 55.8207 28.2985C53.9722 28.4551 45.5309 29.5931 43.7125 29.9302C34.6435 31.5932 25.7528 34.1132 17.1601 37.4564C12.4035 39.341 9.67003 40.4669 5.23258 42.9957C2.91451 44.3263 0.415815 46.0965 0.19906 48.9203C-0.0176942 51.7442 0.00036863 55.8324 0.00036863 55.8324C0.00036863 60.601 0.000368639 66.068 5.25667 68.0971C11.392 70.4513 19.1049 71.0112 25.5894 71.1076L67.4351 71.0474L194.784 71.1015H236.979C236.979 71.1015 243.644 71.4628 247.763 67.4167C249.503 65.7068 253.483 65.1649 255.771 64.1895C259.01 62.8107 259.341 61.9437 259.985 58.7345C261.111 52.9965 262.918 48.1617 261.448 42.3635L259.853 36.0716C259.166 33.3501 258.478 30.6307 257.788 27.9132L260.708 21.0734C260.708 21.0734 253.483 19.8692 248.666 18.9661C243.849 18.0629 208.928 4.45459e-05 153.836 4.45459e-05Z" fill="#F1F2F2"/>
<path d="M153.836 4.45459e-05C142.478 -0.0089064 131.16 1.33111 120.118 3.99194C109.656 6.5138 99.5302 10.2691 89.9535 15.1789C86.1844 17.1176 82.5477 19.3153 78.8448 21.3744C69.982 26.2936 65.7793 27.4737 55.8207 28.2985C53.9722 28.4551 45.5309 29.5931 43.7125 29.9302C34.6435 31.5932 25.7528 34.1132 17.1601 37.4564C12.4035 39.341 9.67003 40.4669 5.23258 42.9957C2.91451 44.3263 0.415815 46.0965 0.19906 48.9203C-0.0176942 51.7442 0.00036863 55.8324 0.00036863 55.8324C0.00036863 60.601 0.000368639 66.068 5.25667 68.0971C11.392 70.4513 19.1049 71.0112 25.5894 71.1076L67.4351 71.0474L194.784 71.1015H236.979C236.979 71.1015 243.644 71.4628 247.763 67.4167C249.503 65.7068 253.483 65.1649 255.771 64.1895C259.01 62.8107 259.341 61.9437 259.985 58.7345C261.111 52.9965 262.918 48.1617 261.448 42.3635L259.853 36.0716C259.166 33.3501 258.478 30.6307 257.788 27.9132L260.708 21.0734C260.708 21.0734 253.483 19.8692 248.666 18.9661C243.849 18.0629 208.928 4.45459e-05 153.836 4.45459e-05Z" fill="url(#paint0_linear)"/>
<path d="M81.2833 59.156C80.8197 59.2704 170.695 58.855 180.479 54.1887C180.479 54.1887 184.091 51.1782 162.265 51.9308C140.439 52.6835 98.142 55.0919 81.2833 59.156Z" fill="#FDFEFF"/>
<path d="M58.6746 37.4624C57.8799 37.4624 57.7715 37.914 58.0725 38.2331L58.9034 38.9195C59.1383 39.1182 60.0233 39.8286 60.0233 39.8286C60.484 40.2276 61.0759 40.442 61.6851 40.4307C62.3915 40.4662 63.0955 40.3234 63.7322 40.0153L67.4351 38.1127C67.6278 37.9983 68.0372 37.8598 67.8867 37.5949C67.8024 37.4443 67.4713 37.4744 67.2846 37.4624H58.6746Z" fill="#010101"/>
<path d="M215.551 17.8641C215.304 18.1471 190.865 46.1626 183.477 55.6577C175.909 65.4658 170.941 65.6284 170.893 65.6284H146.159V24.5835H145.557V65.6284H76.2678V32.778C76.2678 32.778 76.0932 30.2131 83.198 26.1128L82.8969 25.589C75.3346 29.9542 75.6718 32.7419 75.6718 32.8142V65.6284H60.3424V66.2305H170.893C171.104 66.2305 176.168 66.1161 183.977 56.031C191.334 46.5299 215.779 18.5445 216.026 18.2615L215.551 17.8641Z" fill="url(#paint1_linear)"/>
<path d="M149.471 4.14246C125.549 4.5579 105.481 10.5247 81.2832 26.5946H82.385C82.385 26.5946 90.0979 21.3744 97.4374 21.3744C102.338 21.3744 102.543 25.5891 102.525 26.5946H146.249L149.471 4.14246Z" fill="#010101"/>
<path d="M13.5416 53.671C14.7036 53.671 13.5416 55.5194 13.2887 55.9108C13.0655 56.3544 12.7468 56.7431 12.3554 57.0488C11.8792 57.2941 11.3357 57.3766 10.8081 57.2836C9.57733 57.0736 8.40055 56.6213 7.34601 55.9529C3.16144 53.6168 5.69627 53.671 5.69627 53.671H13.5416Z" fill="#010101"/>
<path d="M28.7383 48.1677C24.1564 42.4599 18.6653 41.9601 18.6111 41.9601L18.6532 41.358C18.8941 41.358 24.4695 41.8819 29.208 47.8065L28.7383 48.1677Z" fill="#D8D9DA"/>
<path d="M238.43 51.0759H229.568V50.4738H238.43C240.733 50.5611 243.017 50.0398 245.053 48.9625C247.823 47.361 248.166 44.8442 248.564 41.9361C248.618 41.5327 248.672 41.1293 248.732 40.7319L249.804 33.7837L250.406 33.874L249.334 40.8222C249.274 41.2256 249.22 41.629 249.166 42.0264C248.762 44.9646 248.383 47.7403 245.36 49.4924C243.229 50.6187 240.839 51.1648 238.43 51.0759V51.0759Z" fill="#D8D9DA"/>
<path d="M4.59424 43.3509L7.99608 45.2656C9.23152 45.7299 10.5616 45.8859 11.8709 45.7202C13.1803 45.5544 14.4295 45.0718 15.5102 44.3142C18.5207 42.1045 21.8383 40.232 25.0655 38.3294L28.359 36.5231C28.359 36.5231 30.5385 35.5116 29.9786 34.482C29.4849 33.5849 27.3896 34.0365 26.661 34.1448C21.6757 34.9215 6.6233 41.4784 4.59424 43.3509Z" fill="white"/>
<path d="M43.1467 39.9793C39.6611 39.9792 36.2234 40.7911 33.1062 42.3506C29.9889 43.9101 27.2778 46.1743 25.1878 48.9637C23.0977 51.7532 21.6862 54.9911 21.0652 58.421C20.4441 61.8508 20.6305 65.3781 21.6097 68.7233C21.835 69.494 22.1023 70.2518 22.4105 70.9932C23.7833 71.0655 25.138 71.1076 26.4385 71.1317L63.8528 71.0655C64.1742 70.3019 64.4497 69.5198 64.6776 68.7233C65.6606 65.3784 65.8501 61.8504 65.231 58.4195C64.6118 54.9885 63.2012 51.7492 61.1111 48.9589C59.0209 46.1686 56.3089 43.9041 53.1905 42.3453C50.072 40.7865 46.633 39.9764 43.1467 39.9793Z" fill="#010101"/>
<path d="M43.0503 81.8849C54.0238 81.8849 62.9195 72.9892 62.9195 62.0158C62.9195 51.0423 54.0238 42.1466 43.0503 42.1466C32.0769 42.1466 23.1812 51.0423 23.1812 62.0158C23.1812 72.9892 32.0769 81.8849 43.0503 81.8849Z" fill="#010101"/>
<path d="M43.0503 76.4663C51.031 76.4663 57.5006 69.9967 57.5006 62.016C57.5006 54.0353 51.031 47.5657 43.0503 47.5657C35.0696 47.5657 28.6 54.0353 28.6 62.016C28.6 69.9967 35.0696 76.4663 43.0503 76.4663Z" fill="white"/>
<path d="M48.1111 63.1493C48.7366 60.3554 46.9788 57.5834 44.1849 56.9579C41.391 56.3324 38.619 58.0902 37.9935 60.8841C37.3679 63.678 39.1257 66.45 41.9196 67.0755C44.7135 67.701 47.4855 65.9432 48.1111 63.1493Z" fill="#A6A8AC"/>
<path d="M217.79 15.2931C217.526 14.6127 216.803 13.9625 215.442 13.3965C214.377 12.957 213.323 12.5174 212.239 12.1201C195.194 5.8402 176.222 4.36507 158.051 4.14832V26.5944H183.339C189.4 26.5169 195.444 25.9125 201.401 24.7882C205.339 24.0175 209.391 22.9819 212.92 21.007C215.406 19.6282 218.561 17.3041 217.79 15.2931Z" fill="#010101"/>
<path d="M237.425 25.1858H258.944L257.77 27.9313L258.944 32.5735C258.944 32.5735 257.095 36.3246 250.069 34.9217L237.425 25.1858Z" fill="#010101"/>
<path d="M215.195 40.0394C211.71 40.0403 208.273 40.8529 205.157 42.4128C202.04 43.9726 199.33 46.237 197.241 49.0263C195.151 51.8156 193.74 55.0533 193.12 58.4826C192.499 61.912 192.685 65.4388 193.664 68.7835C193.895 69.5771 194.17 70.3571 194.489 71.1196H235.907C236.226 70.3571 236.502 69.5771 236.732 68.7835C237.711 65.4383 237.898 61.9109 237.277 58.4811C236.656 55.0513 235.244 51.8133 233.154 49.0239C231.064 46.2345 228.353 43.9702 225.236 42.4107C222.119 40.8512 218.681 40.0393 215.195 40.0394V40.0394Z" fill="#010101"/>
<path d="M215.195 81.8849C226.169 81.8849 235.065 72.9892 235.065 62.0158C235.065 51.0423 226.169 42.1466 215.195 42.1466C204.222 42.1466 195.326 51.0423 195.326 62.0158C195.326 72.9892 204.222 81.8849 215.195 81.8849Z" fill="#010101"/>
<path d="M215.195 76.4663C223.176 76.4663 229.646 69.9967 229.646 62.016C229.646 54.0353 223.176 47.5657 215.195 47.5657C207.215 47.5657 200.745 54.0353 200.745 62.016C200.745 69.9967 207.215 76.4663 215.195 76.4663Z" fill="white"/>
<path d="M219.301 65.1723C221.047 62.9027 220.621 59.6479 218.352 57.9026C216.082 56.1573 212.828 56.5823 211.082 58.8519C209.337 61.1215 209.762 64.3763 212.032 66.1216C214.301 67.8669 217.556 67.4418 219.301 65.1723Z" fill="#A6A8AC"/>
<defs>
<linearGradient id="paint0_linear" x1="130.992" y1="18.1231" x2="130.992" y2="71.2701" gradientUnits="userSpaceOnUse">
<stop stop-color="#F1F2F2" stop-opacity="0"/>
<stop offset="0.13" stop-color="#EDEEEE" stop-opacity="0.08"/>
<stop offset="0.37" stop-color="#E1E2E3" stop-opacity="0.29"/>
<stop offset="0.7" stop-color="#CFD0D2" stop-opacity="0.62"/>
<stop offset="1" stop-color="#BCBEC0" stop-opacity="0.95"/>
</linearGradient>
<linearGradient id="paint1_linear" x1="138.187" y1="50.853" x2="138.187" y2="69.9153" gradientUnits="userSpaceOnUse">
<stop stop-color="#D8D9DA"/>
<stop offset="0.39" stop-color="#C9CACC"/>
<stop offset="1" stop-color="#A9ABAE"/>
</linearGradient>
</defs>
</svg>
