<?xml version="1.0" encoding="UTF-8"?>
<svg width="20px" height="20px" viewBox="0 0 20 20" version="1.1" xmlns="http://www.w3.org/2000/svg" xmlns:xlink="http://www.w3.org/1999/xlink">
    <!-- Generator: Sketch 61.2 (89653) - https://sketch.com -->
    <title>Shape</title>
    <desc>Created with Sketch.</desc>
    <g id="Page-1" stroke="none" stroke-width="1" fill="none" fill-rule="evenodd">
        <g id="3-1_Order" transform="translate(-199.000000, -534.000000)" fill="#688AF5">
            <g id="Icon" transform="translate(197.000000, 532.000000)">
                <path d="M12,22 C6.48571429,22 2,17.5142857 2,12 C2,6.48571429 6.48571429,2 12,2 C17.5142857,2 22,6.48571429 22,12 C22,17.5142857 17.5142857,22 12,22 Z M12,4 C7.5888,4 4,7.5888 4,12 C4,16.4112 7.5888,20 12,20 C16.4112,20 20,16.4112 20,12 C20,7.5888 16.4112,4 12,4 Z M13,7 L13,8 L15,8 L15,10 L11.5,10 C11.224,10 11,10.225 11,10.5 C11,10.776 11.224,11 11.5,11 L12.5,11 C13.878,11 15,12.122 15,13.5 C15,14.707 14.14,15.717 13,15.949 L13,17 L11,17 L11,16 L9,16 L9,14 L12.5,14 C12.776,14 13,13.776 13,13.5 C13,13.225 12.776,13 12.5,13 L11.5,13 C10.122,13 9,11.878 9,10.5 C9,9.293 9.86,8.283 11,8.051 L11,7 L13,7 Z" id="Shape"></path>
            </g>
        </g>
    </g>
</svg>