<svg width="66" height="36" viewBox="0 0 66 36" fill="none" xmlns="http://www.w3.org/2000/svg">
<g filter="url(#filter0_dd)">
<path d="M8 21.7682C8 23.7411 9.3862 25.8201 11.1807 26.5096C11.5783 26.6263 11.9007 26.7324 12.1479 26.8172C12.5992 26.9763 12.9753 27.2733 13.2654 27.6446C13.3729 27.7825 13.8135 27.8991 13.9424 27.8991C14.254 27.8991 20.3899 27.8991 20.3899 27.8991C20.3899 27.8991 20.7982 27.8779 20.9379 27.7506C21.2818 27.443 21.7546 27.3264 22.2166 27.3476C24.7204 27.4749 31.501 27.4324 35.7348 27.4218C40.9572 27.4218 44.3636 27.2733 43.2461 27.337C43.7296 27.3051 44.2132 27.4324 44.5678 27.7506C44.7075 27.8779 45.1158 27.8991 45.1158 27.8991C45.1158 27.8991 51.7137 27.8991 51.8749 27.8991C52.1865 27.8991 52.4767 27.39 52.7131 27.3051C52.971 27.2097 53.648 27.1672 54.2175 27.04C55.5177 26.7536 57.8818 25.8095 57.8818 22.691C57.8818 21.4394 57.8818 14.4386 57.8818 13.1869C57.8818 10.0684 55.5177 9.12437 54.2175 8.83797C53.648 8.71068 52.971 8.67886 52.7131 8.57279C52.4552 8.50915 52.1758 8 51.8534 8C51.703 8 45.0943 8 45.0943 8C45.0943 8 44.686 8.02121 44.5463 8.1485C44.1917 8.46672 43.7081 8.594 43.2246 8.56218C44.4389 8.63643 41.7309 8.46672 35.7133 8.46672C31.4795 8.45611 24.6882 8.4349 22.1951 8.56218C21.7331 8.5834 21.2603 8.46672 20.9164 8.15911C20.7874 8.02121 20.3791 8 20.3791 8C20.3791 8 14.254 8 13.9317 8C13.8135 8 13.3729 8.11668 13.2654 8.25457C12.9645 8.62583 12.5884 8.92283 12.1371 9.08194C11.89 9.16679 11.5783 9.27287 11.1807 9.38955C9.3862 10.079 8 12.158 8 14.131C8 16.157 8 19.7528 8 21.7682Z" fill="url(#paint0_linear)"/>
</g>
<path d="M13.9317 8C14.2433 8 20.3684 8 20.3684 8C20.3684 8 20.7767 8.02121 20.9164 8.1485C21.2603 8.45611 21.7331 8.57279 22.1952 8.55158C24.6989 8.42429 31.4903 8.4455 35.7241 8.46672C41.7417 8.46672 44.4496 8.63643 43.2354 8.56218C43.7082 8.594 44.1917 8.46672 44.5463 8.1485C44.6968 8.02121 45.0944 8 45.0944 8C45.0944 8 51.703 8 51.8535 8C52.1651 8 52.4552 8.49854 52.6809 8.594C52.9495 8.68947 53.6158 8.72129 54.1853 8.84858C55.4855 9.13497 57.8603 10.079 57.8603 13.1975C57.8603 14.4492 57.8603 21.45 57.8603 22.7016C57.8603 25.8201 55.4855 26.7642 54.1853 27.0506C53.6158 27.1779 52.9495 27.2097 52.6809 27.3158C52.4552 27.4006 52.1651 27.8991 51.8535 27.8991C51.703 27.8991 45.0944 27.8991 45.0944 27.8991C45.0944 27.8991 44.6968 27.8779 44.5463 27.7506C44.1917 27.4324 43.7082 27.3051 43.2354 27.337C44.3529 27.2627 40.9465 27.4218 35.7241 27.4218C31.4903 27.4324 24.6989 27.4749 22.1952 27.3476C21.7331 27.3264 21.2603 27.443 20.9164 27.7506C20.7767 27.8779 20.3684 27.8991 20.3684 27.8991C20.3684 27.8991 14.2433 27.8991 13.9317 27.8991C13.8027 27.8991 13.3729 27.7825 13.2547 27.6446C12.9646 27.2733 12.5885 26.9869 12.1372 26.8172C11.976 26.7642 11.7933 26.7005 11.5676 26.6369C12.3628 26.8596 13.3729 26.9657 14.6087 26.9657L22.6143 26.6687L34.0692 26.9657H35.6704H47.5337L49.296 26.9657C49.9944 26.9657 50.6822 26.9339 51.3806 26.8596C52.3585 26.7536 53.6695 26.5732 54.1853 26.3929C55.8509 25.5762 57.2156 24.9291 57.2156 20.2195C57.2156 20.1241 57.2156 20.0286 57.2156 19.9225C57.2156 19.774 57.2156 19.6255 57.2156 19.4664V16.4327C57.2156 16.2736 57.2156 16.1251 57.2156 15.9766C57.2156 15.8706 57.2156 15.7751 57.2156 15.6796C57.2156 10.97 55.8509 10.323 54.1853 9.50623C53.6695 9.3153 52.3585 9.14558 51.3806 9.03951C50.6822 8.96526 49.9944 8.93344 49.296 8.93344H47.5337L35.6704 8.93344H34.0692L22.6143 8.93344L14.5872 8.93344C13.3622 8.93344 12.3521 9.03951 11.5676 9.27287C11.7933 9.19862 11.976 9.13497 12.1372 9.08194C12.5885 8.92283 12.9646 8.62583 13.2547 8.25457C13.3729 8.11668 13.8027 8 13.9317 8Z" fill="url(#paint1_linear)"/>
<path fill-rule="evenodd" clip-rule="evenodd" d="M54.196 8.84858C53.9212 8.78716 53.6239 8.74797 53.3596 8.71313C53.0761 8.67576 52.8306 8.64341 52.6916 8.594C52.6028 8.55642 52.504 8.45638 52.3978 8.34887C52.2342 8.18328 52.0532 8 51.8642 8L45.1051 8C45.1051 8 44.7075 8.02121 44.5571 8.1485C44.209 8.46091 43.7365 8.58929 43.272 8.56377L43.2861 8.56463C43.4496 8.57462 43.5304 8.57956 43.5304 8.58071C43.5303 8.58183 43.4532 8.57935 43.3006 8.57444C42.5472 8.55018 39.9548 8.46672 35.7348 8.46672C31.501 8.4455 24.7097 8.42429 22.2059 8.55158C21.7439 8.57279 21.271 8.45611 20.9272 8.1485C20.7875 8.02121 20.3791 8 20.3791 8L13.9424 8C13.8135 8 13.3837 8.11668 13.2655 8.25457C12.9753 8.62583 12.5992 8.92283 12.1479 9.08194C12.0741 9.10623 11.9957 9.13275 11.9108 9.16149L11.9108 9.16149C11.8103 9.1955 11.7007 9.23263 11.5784 9.27287C12.3628 9.03951 13.3729 8.93344 14.5979 8.93344C16.242 8.93344 18.273 9.12437 20.6908 9.50623C21.3463 9.6123 22.077 9.71837 22.8614 9.82444C23.1515 9.86687 23.4417 9.9093 23.7533 9.94112C24.0536 9.98793 24.3888 10.029 24.746 10.0728L24.7461 10.0728C24.8746 10.0885 25.0059 10.1046 25.1395 10.1214C25.3777 10.1582 25.6159 10.1847 25.8577 10.2117L25.8577 10.2117C25.965 10.2237 26.0729 10.2357 26.1819 10.2487L26.7299 10.3124C27.3531 10.3866 27.9764 10.4503 28.5782 10.5033C28.6426 10.5033 28.7071 10.5139 28.7716 10.5245C29.0295 10.5457 29.2874 10.5669 29.5345 10.5882C29.5814 10.5933 29.6257 10.5959 29.6687 10.5985C29.7145 10.6013 29.7588 10.6039 29.8032 10.6094C30.8885 10.6942 31.8449 10.7473 32.5541 10.7473C38.3998 10.7473 40.1943 10.7154 42.3112 10.6624C43.1172 10.6412 44.3852 10.5563 44.8795 10.4927C45.0924 10.464 45.2965 10.444 45.492 10.4248L45.5564 10.4184C45.5994 10.4078 45.6317 10.4078 45.6639 10.4078C45.7284 10.3972 45.8036 10.3866 45.8896 10.376L47.9313 10.1002L47.984 10.0944C48.1581 10.0752 48.325 10.0568 48.5008 10.0472C48.7499 10.0218 49.0059 9.98276 49.2798 9.94104C49.3485 9.93057 49.4183 9.91994 49.4894 9.9093C50.564 9.73958 51.6708 9.71837 52.7454 9.9093C53.7447 10.0896 54.3357 10.4184 55.1309 11.5322C55.0089 11.3269 54.8876 11.1491 54.7747 10.9837C54.4504 10.5084 54.196 10.1358 54.196 9.50623L54.2193 9.51765C55.8743 10.3291 57.2263 10.992 57.2263 15.6796V17.9496H57.8711V13.1975C57.8711 10.079 55.4963 9.13497 54.196 8.84858ZM54.2193 26.3921C55.8743 25.5806 57.2263 24.9177 57.2263 20.2301V17.9602H57.8711L57.8711 22.7122C57.8711 25.8307 55.4963 26.7748 54.196 27.0612C53.9212 27.1226 53.6239 27.1618 53.3596 27.1966C53.0761 27.234 52.8306 27.2663 52.6916 27.3158C52.6028 27.3533 52.504 27.4534 52.3978 27.5609C52.2342 27.7265 52.0532 27.9098 51.8642 27.9098L45.1051 27.9098C45.1051 27.9098 44.7075 27.8885 44.5571 27.7613C44.209 27.4488 43.7365 27.3205 43.272 27.346L43.2868 27.3451L43.2869 27.3451C43.4499 27.3351 43.5304 27.3302 43.5304 27.329C43.5303 27.3279 43.4532 27.3304 43.3008 27.3353L43.3006 27.3353H43.3006C42.5471 27.3596 39.9548 27.443 35.7348 27.443C31.501 27.4643 24.7097 27.4855 22.2059 27.3582C21.7439 27.337 21.271 27.4536 20.9272 27.7613C20.7875 27.8885 20.3791 27.9098 20.3791 27.9098L13.9424 27.9098C13.8135 27.9098 13.3837 27.7931 13.2655 27.6552C12.9753 27.2839 12.5992 26.9869 12.1479 26.8278C12.0741 26.8035 11.9958 26.777 11.9109 26.7483L11.9103 26.7481L11.9103 26.7481C11.8099 26.7141 11.7004 26.6771 11.5784 26.6369C12.3628 26.8702 13.3729 26.9763 14.5979 26.9763C16.242 26.9763 18.273 26.7854 20.6908 26.4035C21.3463 26.2975 22.077 26.1914 22.8614 26.0853L22.8615 26.0853C23.1516 26.0429 23.4417 26.0005 23.7533 25.9686C24.0536 25.9218 24.3888 25.8808 24.7461 25.837C24.8746 25.8212 25.0059 25.8051 25.1395 25.7883C25.3777 25.7516 25.6159 25.725 25.8577 25.6981L25.8578 25.698C25.965 25.6861 26.0729 25.6741 26.1819 25.661L26.7299 25.5974C27.3531 25.5231 27.9764 25.4595 28.5782 25.4065C28.6426 25.4065 28.7071 25.3958 28.7715 25.3852L28.7716 25.3852C29.0295 25.364 29.2874 25.3428 29.5345 25.3216C29.5814 25.3165 29.6257 25.3138 29.6687 25.3112L29.6687 25.3112C29.7145 25.3085 29.7589 25.3058 29.8032 25.3004C30.8885 25.2155 31.8449 25.1625 32.5541 25.1625C38.3998 25.1625 40.1943 25.1943 42.3112 25.2473C43.1172 25.2686 44.3852 25.3534 44.8795 25.4171C45.0924 25.4457 45.2966 25.4658 45.4921 25.485L45.5564 25.4913C45.5994 25.5019 45.6317 25.5019 45.6639 25.5019C45.7284 25.5125 45.8036 25.5231 45.8896 25.5337L47.9313 25.8095L47.984 25.8153L47.984 25.8153C48.1581 25.8345 48.325 25.8529 48.5008 25.8626C48.7499 25.888 49.0059 25.927 49.2797 25.9687L49.2797 25.9687L49.2806 25.9688C49.349 25.9793 49.4186 25.9899 49.4894 26.0005C50.564 26.1702 51.6708 26.1914 52.7454 26.0005C53.7447 25.8201 54.3357 25.4913 55.1309 24.3776C55.0089 24.5829 54.8876 24.7607 54.7747 24.926C54.4504 25.4013 54.196 25.774 54.196 26.4035L54.2193 26.3921ZM22.625 26.9763L47.5444 26.9763C48.4148 26.9763 48.4685 26.6581 47.7271 26.5414C46.8782 26.4141 45.0084 26.202 44.6108 26.1596C42.8485 26.0005 40.1513 25.9262 36.5623 25.9262H36.4763L35.1868 25.9368C31.0282 25.958 29.0187 26.1171 26.8159 26.3505C24.9461 26.552 23.7748 26.7324 22.5605 26.9233C22.4638 26.9339 22.5068 26.9763 22.625 26.9763ZM44.6108 9.75019C45.0084 9.70776 46.8782 9.49562 47.7271 9.36833C48.4685 9.25165 48.4148 8.93344 47.5444 8.93344L22.625 8.93344C22.5068 8.93344 22.4638 8.97586 22.5605 8.98647C23.7748 9.1774 24.9461 9.35772 26.8159 9.55926C29.0187 9.79262 31.0282 9.95173 35.1868 9.97294L36.4763 9.98355L36.5623 9.98355C40.1513 9.98355 42.8485 9.9093 44.6108 9.75019Z" fill="url(#paint2_linear)"/>
<path d="M51.8642 8C51.7138 8 45.1051 8 45.1051 8C45.1051 8 44.7075 8.02121 44.5571 8.1485C44.2025 8.46672 43.7189 8.594 43.2461 8.56218C43.9231 8.60461 43.3751 8.57279 41.731 8.53036V8.93344L47.5444 8.93344C48.4148 8.93344 48.4685 9.25165 47.7271 9.36833C46.8782 9.49562 45.0084 9.70776 44.6108 9.75019C43.8371 9.82444 42.87 9.87748 41.731 9.9093V10.673C41.9244 10.673 42.1178 10.6624 42.3112 10.6624C43.1172 10.6412 44.3852 10.5563 44.8795 10.4927C45.1159 10.4609 45.3415 10.4397 45.5564 10.4184C45.5994 10.4078 45.6317 10.4078 45.6639 10.4078C45.7284 10.3972 45.8036 10.3866 45.8896 10.376L47.9313 10.1002C48.1247 10.079 48.3074 10.0578 48.5008 10.0472C48.8124 10.0154 49.1348 9.96234 49.4894 9.9093C50.2738 9.78201 51.069 9.73958 51.8642 9.80323V8Z" fill="url(#paint3_linear)"/>
<path d="M51.8642 27.9097C51.7138 27.9097 45.1051 27.9097 45.1051 27.9097C45.1051 27.9097 44.7075 27.8885 44.5571 27.7612C44.2025 27.443 43.7189 27.3157 43.2461 27.3476C43.9231 27.3051 43.3751 27.337 41.731 27.3794V26.9763H47.5444C48.4148 26.9763 48.4685 26.6581 47.7271 26.5414C46.8782 26.4141 45.0084 26.202 44.6108 26.1596C43.8371 26.0853 42.87 26.0323 41.731 26.0004V25.2367C41.9244 25.2367 42.1178 25.2473 42.3112 25.2473C43.1172 25.2685 44.3852 25.3534 44.8795 25.417C45.1159 25.4489 45.3415 25.4701 45.5564 25.4913C45.5994 25.5019 45.6317 25.5019 45.6639 25.5019C45.7284 25.5125 45.8036 25.5231 45.8896 25.5337L47.9313 25.8095C48.1247 25.8307 48.3074 25.8519 48.5008 25.8626C48.8124 25.8944 49.1348 25.9474 49.4894 26.0004C50.2738 26.1277 51.069 26.1702 51.8642 26.1065V27.9097Z" fill="url(#paint4_linear)"/>
<path d="M9.31104 23.8366C10.4716 25.4489 11.342 25.9686 13.6093 26.2444C15.3931 26.4566 17.6712 26.2232 21.4 25.6504C21.4 25.6504 21.7761 26.2126 22.3456 26.1277C22.9581 26.0429 23.216 25.9898 20.68 26.3929C18.273 26.7748 16.2528 26.9657 14.6087 26.9657C13.3729 26.9657 12.3628 26.8596 11.5676 26.6369C11.4279 26.5945 11.299 26.552 11.1593 26.5096C11.1271 25.4913 10.0847 25.1307 9.31104 23.8366Z" fill="url(#paint5_linear)"/>
<path d="M13.6093 9.78202C11.3527 10.0472 10.4823 10.5563 9.34326 12.1474C10.1277 10.864 11.17 10.5139 11.17 9.4532L11.1485 9.40016C11.1593 9.40016 11.1593 9.38955 11.17 9.38955C11.299 9.34712 11.4279 9.30469 11.5676 9.27287C12.3521 9.03951 13.3622 8.93344 14.5872 8.93344C16.2313 8.93344 18.2622 9.12437 20.68 9.50623C21.3355 9.6123 22.0662 9.71838 22.8507 9.82445C22.6143 9.79263 22.4423 9.77141 22.3456 9.7608C21.9265 9.69716 21.6042 9.94113 21.3463 10.3654C17.6497 9.79263 15.3824 9.55927 13.6093 9.78202Z" fill="url(#paint6_linear)"/>
<path d="M9.33251 12.1474C10.4716 10.5563 11.342 10.0472 13.5986 9.78201C15.3716 9.55926 17.639 9.79262 21.3355 10.3654C21.1421 10.6518 21.0024 11.0124 20.8735 11.4155C17.8109 10.9912 16.0271 10.7154 14.512 10.8958C12.8571 11.0761 12.0297 11.5004 11.2238 12.3702C8.44061 15.3614 8.44061 20.5271 11.2238 23.5184C12.0297 24.3882 12.8571 24.8124 14.512 24.9928C15.8982 25.1519 18.2407 25.2473 21.0239 24.9609C21.1743 25.3852 21.3892 25.6504 21.3892 25.6504C17.6605 26.2232 15.3824 26.4566 13.5986 26.2444C11.3312 25.9686 10.4608 25.4489 9.30027 23.8366C9.30027 23.8366 9.30027 23.8366 9.28953 23.826C8.84895 23.0941 8.49434 22.0652 8.44061 20.4635C8.42987 20.3786 8.41912 20.3044 8.42987 20.2301C8.42987 20.1559 8.42987 20.0816 8.42987 20.0074C8.42987 18.7663 8.42987 17.2707 8.42987 16.0191C8.42987 15.9448 8.42987 15.8706 8.42987 15.7963C8.41912 15.7221 8.42987 15.6478 8.44061 15.5629C8.49434 13.9613 8.84895 12.9324 9.30027 12.1899C9.30027 12.1686 9.31102 12.158 9.33251 12.1474Z" fill="url(#paint7_linear)"/>
<path d="M21.0125 24.961C18.2293 25.2474 15.8868 25.1519 14.5006 24.9928C12.8457 24.8125 12.0183 24.3882 11.2124 23.5184C8.42921 20.5271 8.42921 15.3614 11.2124 12.3702C12.0183 11.5004 12.8457 11.0761 14.5006 10.8958C16.0157 10.7155 17.8844 10.7841 20.947 11.2083C20.8395 11.569 20.6686 12.1793 20.5934 12.5929C20.5504 12.8157 20.5074 13.0278 20.4859 13.1975C20.4752 13.24 20.4645 13.2824 20.4645 13.3142C20.4645 13.3567 20.4537 13.3991 20.4537 13.4521C20.3355 14.3856 20.2818 15.266 20.2603 15.7963C20.2603 15.7963 20.2281 16.8783 20.2281 17.939C20.2281 19.0103 20.2603 20.0922 20.2603 20.0922C20.2818 20.5696 20.3248 21.3227 20.4215 22.1394C20.4215 22.1607 20.4215 22.1925 20.4215 22.2137C20.4322 22.4258 20.4537 22.5849 20.4645 22.7016C20.5074 22.9986 20.5934 23.4653 20.7224 23.9427C20.7546 24.0806 20.7868 24.2078 20.8298 24.3457C20.8406 24.4094 20.8621 24.473 20.8835 24.5261C20.8943 24.5579 20.905 24.6003 20.9158 24.6321C20.948 24.7382 20.9803 24.8443 21.0125 24.9503V24.961Z" fill="url(#paint8_radial)"/>
<path d="M14.5872 8.93344L22.6142 8.93344C22.496 8.93344 22.4531 8.97587 22.5498 8.98648C23.764 9.17741 24.9353 9.35773 26.8051 9.55927C29.008 9.79263 31.0174 9.95173 35.176 9.97295L36.4655 9.98356C36.4978 9.98356 36.5192 9.98356 36.5515 9.98356C40.1406 9.98356 42.8377 9.90931 44.6001 9.7502C44.9976 9.70777 46.8674 9.49562 47.7163 9.36834C48.4578 9.25166 48.4041 8.93344 47.5336 8.93344H49.2959C49.9944 8.93344 50.6822 8.96526 51.3806 9.03951C52.3585 9.14559 53.6695 9.3153 54.1853 9.50623C54.1853 10.3548 54.6473 10.7367 55.1201 11.5322C54.325 10.4185 53.7339 10.0896 52.7346 9.90931C51.66 9.71838 50.5532 9.73959 49.4786 9.90931C49.124 9.96234 48.8016 10.0154 48.49 10.0472C48.2966 10.0578 48.1139 10.079 47.9205 10.1002L45.8788 10.376C45.7928 10.3866 45.7176 10.3972 45.6531 10.4078C45.6209 10.4078 45.5887 10.4078 45.5457 10.4185C45.3308 10.4397 45.1051 10.4609 44.8687 10.4927C44.3744 10.5563 43.1064 10.6412 42.3005 10.6624C40.1835 10.7155 38.389 10.7473 32.5433 10.7473C31.8341 10.7473 30.8777 10.6942 29.7924 10.6094C29.7064 10.5988 29.6205 10.5988 29.5238 10.5882C29.2766 10.567 29.0187 10.5457 28.7608 10.5245C28.6963 10.5139 28.6319 10.5033 28.5674 10.5033C27.9656 10.4503 27.3424 10.3866 26.7191 10.3124C26.5364 10.2912 26.3538 10.27 26.1711 10.2487C25.8165 10.2063 25.4726 10.1745 25.1287 10.1215C24.6237 10.0578 24.1509 10.0048 23.7425 9.94113C23.4309 9.90931 23.1408 9.86688 22.8506 9.82445C22.0662 9.71838 21.3355 9.6123 20.68 9.50623C18.2622 9.12437 16.2313 8.93344 14.5872 8.93344Z" fill="url(#paint9_linear)"/>
<path d="M22.6142 26.9657H14.6086C16.2527 26.9657 18.2729 26.7748 20.68 26.3929C23.216 25.9898 26.9448 25.5231 29.7924 25.2898C30.8777 25.2049 31.8233 25.1519 32.5433 25.1519C38.389 25.1519 40.1835 25.1837 42.3005 25.2367C43.1064 25.258 44.3744 25.3428 44.8687 25.4065C45.2663 25.4595 45.6424 25.5019 46.0077 25.5337C46.083 25.5443 46.1582 25.555 46.2334 25.5656L46.3194 25.5762C46.3946 25.5868 46.4698 25.5868 46.545 25.5974L47.9205 25.7883C48.1032 25.8095 48.2751 25.8307 48.4578 25.8413C48.7801 25.8838 49.1133 25.9368 49.4786 25.9898C50.5532 26.1596 51.66 26.1914 52.7346 25.9898C53.7339 25.8095 54.325 25.4807 55.1201 24.3669C54.6473 25.1625 54.1853 25.5443 54.1853 26.3929C53.6695 26.5732 52.3585 26.7536 51.3806 26.8596C50.6821 26.9339 49.9944 26.9657 49.2959 26.9657H47.5336C48.404 26.9657 48.4578 26.6475 47.7163 26.5308C46.8674 26.4035 44.9976 26.1914 44.6 26.149C42.8377 25.9898 40.1406 25.9156 36.5515 25.9156C36.5192 25.9156 36.4977 25.9156 36.4655 25.9156L35.176 25.9262C31.0174 25.9474 29.008 26.1065 26.8051 26.3399C24.9353 26.5414 23.764 26.7217 22.5498 26.9127C22.453 26.9233 22.496 26.9657 22.6142 26.9657Z" fill="url(#paint10_linear)"/>
<path d="M22.625 26.9657C22.5068 26.9657 22.4531 26.9233 22.5606 26.9127C23.7641 26.7217 24.9354 26.5414 26.8159 26.3399C29.2444 26.0853 31.4473 25.9156 36.5623 25.9156C40.1514 25.9156 42.8485 25.9898 44.6108 26.1489C44.9977 26.1808 46.8675 26.4035 47.7271 26.5308C48.4686 26.6475 48.4148 26.9657 47.5444 26.9657L22.625 26.9657Z" fill="#2B2E31"/>
<path d="M35.1868 25.9262L36.4655 25.9156L35.853 26.9657L34.0585 26.9763L35.1868 25.9262Z" fill="url(#paint11_linear)"/>
<path d="M22.625 8.93343C22.5068 8.93343 22.4531 8.97586 22.5606 8.98647C23.7641 9.1774 24.9354 9.35772 26.8159 9.55926C29.2444 9.81383 31.4473 9.98355 36.5623 9.98355C40.1514 9.98355 42.8485 9.9093 44.6108 9.75019C44.9977 9.71837 46.8675 9.49562 47.7271 9.36833C48.4686 9.25165 48.4148 8.93343 47.5444 8.93343L22.625 8.93343Z" fill="#2B2E31"/>
<path d="M35.176 9.97294L36.4655 9.98354L35.853 8.93343L34.0585 8.92282L35.176 9.97294Z" fill="url(#paint12_linear)"/>
<path d="M56.7105 12.4126C56.6783 12.3384 56.6568 12.2747 56.6245 12.2111C56.5386 12.0201 56.7212 11.8398 56.6353 11.6807C56.6138 11.6277 56.5815 11.5746 56.5493 11.5322C55.7541 10.4184 55.1953 9.68655 54.196 9.50623C52.1865 9.13497 50.5532 9.73959 49.4786 9.9093C49.124 9.96234 48.8016 10.0154 48.49 10.0472C49.844 9.98355 51.2194 10.3548 52.251 11.2246C53.2611 12.0732 54.1423 13.24 54.1423 14.8098C54.1423 14.8098 54.1852 15.7433 54.1852 17.7586C54.1852 19.774 54.1423 21.0893 54.1423 21.0893C54.1423 22.6592 53.2611 23.826 52.251 24.6746C51.2194 25.5443 49.844 25.9156 48.49 25.852C48.8016 25.8838 49.124 25.9368 49.4786 25.9898C50.5532 26.1596 52.1865 26.7642 54.1852 26.3929C55.1846 26.2126 55.6037 25.2049 56.3989 24.0912C56.4311 24.0487 56.4633 23.9957 56.4848 23.9427C56.5708 23.7835 56.5386 23.879 56.6245 23.6881C56.6568 23.6244 56.6783 23.5608 56.7105 23.4865C57.1618 22.1182 57.2155 20.1347 57.2155 19.4664V17.7586V16.4327C57.2155 15.7645 57.1618 13.7809 56.7105 12.4126Z" fill="url(#paint13_radial)"/>
<path d="M29.5452 17.9496C29.5452 14.7886 29.6419 13.6112 30.1362 12.1898C30.6628 10.6836 30.6628 10.6836 29.2121 10.5669C26.8588 10.3866 22.9581 9.85626 22.3455 9.76079C20.68 9.51683 20.3576 14.2052 20.2824 15.7963C20.2824 15.7963 20.2501 16.8782 20.2501 17.9496C20.2501 19.0209 20.2824 20.1028 20.2824 20.1028C20.3576 21.6939 20.68 26.3823 22.3455 26.1383C22.9688 26.0429 26.8588 25.5125 29.2121 25.3322C30.6735 25.2155 30.6735 25.2155 30.1362 23.7093C29.6527 22.2879 29.5452 21.1105 29.5452 17.9496Z" fill="#2B2E31"/>
<path opacity="0.4" d="M22.2273 25.9899C20.8196 25.9899 20.508 21.4712 20.4435 20.0922C20.4435 20.0922 20.4113 19.0103 20.4113 17.9496C20.4113 16.9101 20.4327 15.8706 20.4435 15.8069C20.508 14.4174 20.8196 9.9093 22.2273 9.9093C23.3019 10.0578 26.9339 10.5457 29.212 10.7261C29.889 10.7791 30.1684 10.8109 30.2759 10.9064C30.3618 11.0973 30.2866 11.3413 30.0072 12.1474C29.5237 13.537 29.1046 14.725 29.1046 17.939C29.1046 21.1742 29.5237 22.3622 30.018 23.7517C30.2866 24.5048 30.3726 24.8018 30.3188 24.9503C30.1791 25.0882 29.9642 25.1201 29.255 25.1837C26.805 25.3746 22.829 25.9262 22.3455 25.9899H22.2273Z" fill="url(#paint14_radial)"/>
<path d="M45.8251 9.69864C45.0514 9.77289 42.8915 9.87748 42.3112 9.88808C40.1943 9.94112 38.7329 9.97294 32.8872 9.97294C32.178 9.97294 30.8885 10.6836 29.8139 10.5988C30.6736 10.6942 30.5983 10.8958 30.1578 12.1792C29.6635 13.59 29.2659 14.7674 29.2659 17.9284C29.2659 21.0999 29.6635 22.2773 30.1578 23.6881C30.5983 24.9716 30.6736 25.1731 29.8139 25.2686V25.2792C30.8992 25.1943 32.221 25.905 32.9409 25.905C38.7866 25.905 40.205 25.9368 42.322 25.9898C42.8485 26.0005 44.9762 26.202 45.8251 26.2762V9.69864Z" fill="url(#paint15_radial)"/>
<path d="M54.153 14.8098C54.153 13.24 53.2719 12.0732 52.2618 11.2246C51.0797 10.2381 49.4679 9.88809 47.9312 10.1002L45.8895 10.376C44.9332 10.5033 44.7827 10.4503 44.7827 11.0443V14.9371V17.939L44.7827 24.8443C44.7827 25.3958 44.9224 25.3852 45.8895 25.5125L47.9312 25.7883C49.4679 25.9899 51.0797 25.6504 52.2618 24.6639C53.2719 23.8154 54.153 22.6486 54.153 21.0787C54.153 21.0787 54.196 19.7528 54.196 17.939C54.196 15.7963 54.153 14.8098 54.153 14.8098Z" fill="#2B2E31"/>
<path opacity="0.4" d="M48.7801 25.7035C48.5007 25.7035 48.2213 25.6823 47.9527 25.6504L45.7928 25.364C45.2662 25.2898 45.0943 25.258 45.0191 25.1943C44.9653 25.1201 44.9546 25.0564 44.9546 24.8655L44.9546 11.0443C44.9546 10.6624 45.1373 10.6306 45.9217 10.5245L47.9634 10.2487C48.2428 10.2063 48.5222 10.1957 48.7908 10.1957C50.0803 10.1957 51.2838 10.5988 52.165 11.3413C53.39 12.3596 54.0025 13.5264 54.0025 14.8099C54.0025 14.8523 54.0455 15.86 54.0455 17.9496C54.0455 19.6998 54.0025 20.9939 54.0025 21.0787C54.0025 22.3622 53.3793 23.529 52.165 24.5579C51.2731 25.2898 50.0696 25.7035 48.7801 25.7035Z" fill="url(#paint16_radial)"/>
<path d="M11.1701 26.5096C11.299 26.552 11.4279 26.5945 11.5676 26.6369C11.7933 26.7005 11.976 26.7642 12.1372 26.8172C12.5885 26.9869 12.9646 27.2733 13.2547 27.6446C13.3729 27.7825 13.8028 27.8991 13.9317 27.8991C14.0499 27.8991 16.7566 27.8991 18.2502 27.8991V26.2762C16.9178 26.3399 14.3723 26.3399 13.6093 26.2444C11.342 25.9686 10.4716 25.4489 9.31104 23.8366C10.0847 25.1307 11.1271 25.4913 11.1593 26.5096H11.1701Z" fill="url(#paint17_linear)"/>
<path d="M11.1701 9.38955C11.299 9.34712 11.4279 9.30469 11.5676 9.26226C11.7933 9.19862 11.976 9.13497 12.1372 9.08194C12.5885 8.91222 12.9646 8.62583 13.2547 8.25457C13.3729 8.11668 13.8028 8 13.9317 8C14.0499 8 16.7566 8 18.2502 8V9.73958C16.9285 9.67594 14.383 9.67594 13.6093 9.77141C11.342 10.0472 10.4716 10.5669 9.31104 12.1792C10.0847 10.8852 11.1271 10.4078 11.1593 9.38955H11.1701Z" fill="url(#paint18_linear)"/>
<path d="M8.44056 15.8236C8.46205 14.7733 8.60175 13.336 9.225 12.4073C9.24649 12.3742 9.26798 12.341 9.30022 12.3078C9.30022 12.2857 9.31097 12.2747 9.33246 12.2636C10.1169 10.9259 11.1592 10.561 11.1592 9.45543L11.1377 9.40015C9.36469 10.1298 8.41907 12.2857 8.41907 14.331C8.41907 14.8286 8.41907 15.4256 8.41907 16.0668H8.42981C8.41907 15.9894 8.42981 15.912 8.44056 15.8236Z" fill="white"/>
<path d="M8.44056 20.0862C8.46205 21.1365 8.60175 22.5737 9.225 23.5024C9.24649 23.5356 9.26798 23.5687 9.30022 23.6019C9.30022 23.624 9.31097 23.6351 9.33246 23.6461C10.1169 24.9839 11.1592 25.3487 11.1592 26.4543L11.1377 26.5096C9.36469 25.7799 8.41907 23.624 8.41907 21.5787C8.41907 21.0812 8.41907 20.4842 8.41907 19.8429H8.42981C8.41907 19.9203 8.42981 19.9977 8.44056 20.0862Z" fill="white"/>
<path d="M54.1853 9.50623C56.0551 10.1533 57.2156 10.97 57.2156 15.6796C57.2156 15.7751 57.2156 15.5736 57.2156 15.6796C57.2156 11.2352 54.1853 10.3548 54.1853 9.50623Z" fill="url(#paint19_linear)"/>
<path d="M54.1853 26.3929C56.0551 25.7459 57.2156 24.9291 57.2156 20.2195C57.2156 20.1241 57.2156 20.3256 57.2156 20.2195C57.2156 24.664 54.1853 25.5444 54.1853 26.3929Z" fill="url(#paint20_linear)"/>
<defs>
<filter id="filter0_dd" x="0" y="0" width="65.8818" height="35.8991" filterUnits="userSpaceOnUse" color-interpolation-filters="sRGB">
<feFlood flood-opacity="0" result="BackgroundImageFix"/>
<feColorMatrix in="SourceAlpha" type="matrix" values="0 0 0 0 0 0 0 0 0 0 0 0 0 0 0 0 0 0 127 0"/>
<feOffset/>
<feGaussianBlur stdDeviation="4"/>
<feColorMatrix type="matrix" values="0 0 0 0 0.290222 0 0 0 0 0.290175 0 0 0 0 0.290237 0 0 0 0.5 0"/>
<feBlend mode="normal" in2="BackgroundImageFix" result="effect1_dropShadow"/>
<feColorMatrix in="SourceAlpha" type="matrix" values="0 0 0 0 0 0 0 0 0 0 0 0 0 0 0 0 0 0 127 0"/>
<feOffset dx="1"/>
<feGaussianBlur stdDeviation="2"/>
<feColorMatrix type="matrix" values="0 0 0 0 0.290222 0 0 0 0 0.290175 0 0 0 0 0.290237 0 0 0 0.5 0"/>
<feBlend mode="normal" in2="effect1_dropShadow" result="effect2_dropShadow"/>
<feBlend mode="normal" in="SourceGraphic" in2="effect2_dropShadow" result="shape"/>
</filter>
<linearGradient id="paint0_linear" x1="7.99575" y1="27.8943" x2="57.8535" y2="27.9157" gradientUnits="userSpaceOnUse">
<stop stop-color="#BCBEC0"/>
<stop offset="1" stop-color="#9B9B9B"/>
</linearGradient>
<linearGradient id="paint1_linear" x1="23.9643" y1="24.9108" x2="56.3529" y2="24.9108" gradientUnits="userSpaceOnUse">
<stop stop-color="#D1D3D4"/>
<stop offset="0.2943" stop-color="#CACCCE"/>
<stop offset="0.4035" stop-color="#B0B3B5"/>
<stop offset="0.4646" stop-color="#A7A9AC"/>
<stop offset="0.7421" stop-color="#939598"/>
<stop offset="1" stop-color="#95989A"/>
</linearGradient>
<linearGradient id="paint2_linear" x1="8.022" y1="28.6719" x2="57.8675" y2="28.6719" gradientUnits="userSpaceOnUse">
<stop stop-color="#D1D3D4" stop-opacity="0.01"/>
<stop offset="0.299495" stop-color="#D1D3D4"/>
<stop offset="0.367811" stop-color="#9B9DA0" stop-opacity="0.9275"/>
<stop offset="0.729843" stop-color="#939598"/>
<stop offset="0.878781" stop-color="#9C9FA1" stop-opacity="0.5971"/>
<stop offset="1" stop-color="#A7A9AC" stop-opacity="0.01"/>
</linearGradient>
<linearGradient id="paint3_linear" x1="41.7345" y1="10.5877" x2="51.2082" y2="10.5877" gradientUnits="userSpaceOnUse">
<stop stop-color="#6D828C" stop-opacity="0.01"/>
<stop offset="0.255252" stop-color="#BDBDBD"/>
<stop offset="0.60985" stop-color="#CCCCCD"/>
<stop offset="1" stop-color="#A7A9AC" stop-opacity="0.01"/>
</linearGradient>
<linearGradient id="paint4_linear" x1="41.7345" y1="27.8244" x2="51.2082" y2="27.8244" gradientUnits="userSpaceOnUse">
<stop stop-color="#6D828C" stop-opacity="0.01"/>
<stop offset="0.255252" stop-color="#BDBDBD"/>
<stop offset="0.60985" stop-color="#CCCCCD"/>
<stop offset="1" stop-color="#A7A9AC" stop-opacity="0.01"/>
</linearGradient>
<linearGradient id="paint5_linear" x1="15.5054" y1="26.2445" x2="22.7529" y2="26.2445" gradientUnits="userSpaceOnUse">
<stop stop-color="#BCBEC0"/>
<stop offset="0.9995" stop-color="#CDCFD0"/>
</linearGradient>
<linearGradient id="paint6_linear" x1="15.5662" y1="11.4066" x2="22.847" y2="11.4066" gradientUnits="userSpaceOnUse">
<stop stop-color="#BCBEC0"/>
<stop offset="0.9995" stop-color="#CDCFD0"/>
</linearGradient>
<linearGradient id="paint7_linear" x1="14.9073" y1="23.3234" x2="23.1947" y2="23.3234" gradientUnits="userSpaceOnUse">
<stop stop-color="#BCBEC0"/>
<stop offset="1" stop-color="#CDCFD0"/>
</linearGradient>
<radialGradient id="paint8_radial" cx="0" cy="0" r="1" gradientUnits="userSpaceOnUse" gradientTransform="translate(23.0783 17.9736) rotate(-180) scale(13.9533 12.782)">
<stop stop-color="#E6E6E6"/>
<stop offset="0.762589" stop-color="#CDCFD0"/>
<stop offset="1" stop-color="#BCBEC0"/>
</radialGradient>
<linearGradient id="paint9_linear" x1="22.6785" y1="11.0551" x2="48.3278" y2="11.0551" gradientUnits="userSpaceOnUse">
<stop stop-color="#D1D3D4"/>
<stop offset="0.238598" stop-color="#D9DADC"/>
<stop offset="0.6077" stop-color="#D1D2D4"/>
<stop offset="1" stop-color="#A7A9AC"/>
</linearGradient>
<linearGradient id="paint10_linear" x1="22.6957" y1="26.4886" x2="48.3314" y2="26.4886" gradientUnits="userSpaceOnUse">
<stop stop-color="#D1D3D4"/>
<stop offset="0.238598" stop-color="#D9DADC"/>
<stop offset="0.6077" stop-color="#D1D2D4"/>
<stop offset="1" stop-color="#A7A9AC"/>
</linearGradient>
<linearGradient id="paint11_linear" x1="36.1555" y1="26.7234" x2="36.1555" y2="25.9399" gradientUnits="userSpaceOnUse">
<stop stop-color="#939598"/>
<stop offset="1" stop-color="#2B2E31"/>
</linearGradient>
<linearGradient id="paint12_linear" x1="36.1555" y1="9.73062" x2="36.1555" y2="8.94713" gradientUnits="userSpaceOnUse">
<stop stop-color="#2B2E31"/>
<stop offset="1" stop-color="#939598"/>
</linearGradient>
<radialGradient id="paint13_radial" cx="0" cy="0" r="1" gradientUnits="userSpaceOnUse" gradientTransform="translate(52.8561 17.9496) scale(6.85142 13.4457)">
<stop stop-color="#D1D3D4"/>
<stop offset="0.9995" stop-color="#A7A9AC"/>
</radialGradient>
<radialGradient id="paint14_radial" cx="0" cy="0" r="1" gradientUnits="userSpaceOnUse" gradientTransform="translate(29.3957 17.9496) scale(12.8293 30.1758)">
<stop stop-color="#F1F2F2" stop-opacity="0.25"/>
<stop offset="0.0856" stop-color="#DBDCDD" stop-opacity="0.3264"/>
<stop offset="0.3604" stop-color="#999B9E" stop-opacity="0.5718"/>
<stop offset="0.5864" stop-color="#6D6E70" stop-opacity="0.7735"/>
<stop offset="0.7522" stop-color="#4E4E50" stop-opacity="0.9215"/>
<stop offset="1" stop-color="#414042"/>
</radialGradient>
<radialGradient id="paint15_radial" cx="0" cy="0" r="1" gradientUnits="userSpaceOnUse" gradientTransform="translate(50.9304 18.1324) rotate(-180) scale(32.9561 32.9927)">
<stop stop-color="#939598"/>
<stop offset="0.4598" stop-color="#CBCDCF"/>
<stop offset="1" stop-color="#F1F2F2"/>
</radialGradient>
<radialGradient id="paint16_radial" cx="0" cy="0" r="1" gradientUnits="userSpaceOnUse" gradientTransform="translate(53.1859 17.9496) scale(11.7538 29.1009)">
<stop stop-color="#F1F2F2" stop-opacity="0.25"/>
<stop offset="0.0856" stop-color="#DBDCDD" stop-opacity="0.3264"/>
<stop offset="0.3604" stop-color="#999B9E" stop-opacity="0.5718"/>
<stop offset="0.5864" stop-color="#6D6E70" stop-opacity="0.7735"/>
<stop offset="0.7522" stop-color="#4E4E50" stop-opacity="0.9215"/>
<stop offset="1" stop-color="#414042"/>
</radialGradient>
<linearGradient id="paint17_linear" x1="15.024" y1="26.5628" x2="18.0677" y2="26.5628" gradientUnits="userSpaceOnUse">
<stop stop-color="#BCBEC0"/>
<stop offset="0.652886" stop-color="#C3C5C7" stop-opacity="0.5378"/>
<stop offset="0.9995" stop-color="#D1D3D4" stop-opacity="0.01"/>
</linearGradient>
<linearGradient id="paint18_linear" x1="15.024" y1="10.8045" x2="18.0677" y2="10.8045" gradientUnits="userSpaceOnUse">
<stop stop-color="#BCBEC0"/>
<stop offset="0.652886" stop-color="#C3C5C7" stop-opacity="0.5378"/>
<stop offset="0.9995" stop-color="#D1D3D4" stop-opacity="0.01"/>
</linearGradient>
<linearGradient id="paint19_linear" x1="54.1904" y1="15.7024" x2="57.2172" y2="15.7024" gradientUnits="userSpaceOnUse">
<stop offset="0.3195" stop-color="#ED1C24"/>
<stop offset="1" stop-color="#BE1E2D"/>
</linearGradient>
<linearGradient id="paint20_linear" x1="54.1904" y1="26.3897" x2="57.2172" y2="26.3897" gradientUnits="userSpaceOnUse">
<stop offset="0.3195" stop-color="#ED1C24"/>
<stop offset="1" stop-color="#BE1E2D"/>
</linearGradient>
</defs>
</svg>
