<svg xmlns="http://www.w3.org/2000/svg" xmlns:xlink="http://www.w3.org/1999/xlink" viewBox="0 0 16 16"><defs><style>.cls-1{fill:#fdfdfd;}.cls-1,.cls-4{fill-rule:evenodd;}.cls-2,.cls-3{fill:none;}.cls-2{stroke:url(#Безымянный_градиент);}.cls-3{stroke:#9b9b9b;stroke-opacity:0.25;}.cls-4{fill:#688af5;}</style><linearGradient id="Безымянный_градиент" x1="8" y1="22" x2="8" y2="6" gradientTransform="matrix(1, 0, 0, -1, 0, 22)" gradientUnits="userSpaceOnUse"><stop offset="0" stop-color="#9b9b9b" stop-opacity="0.01"/><stop offset="1" stop-color="#fdfdfd" stop-opacity="0.25"/></linearGradient></defs><title>Ресурс 1</title><g id="Слой_2" data-name="Слой 2"><g id="Слой_1-2" data-name="Слой 1"><path class="cls-1" d="M8,0a8,8,0,1,0,8,8A8,8,0,0,0,8,0Z"/><path class="cls-2" d="M.5,8A7.5,7.5,0,1,1,8,15.5,7.5,7.5,0,0,1,.5,8Z"/><path class="cls-3" d="M.5,8A7.5,7.5,0,1,1,8,15.5,7.5,7.5,0,0,1,.5,8Z"/><path class="cls-4" d="M9,13H7V7H9ZM9,5H7V3H9Z"/></g></g></svg>