<svg width="262" height="102" viewBox="0 0 262 102" fill="none" xmlns="http://www.w3.org/2000/svg">
<path d="M259.864 77.1341L257.165 74.9836C257.165 74.9836 256.543 74.6621 256.543 72.5115V43.6325C256.543 43.6325 251.926 14.3845 246.687 2.57773C246.687 2.57773 245.954 0.0160907 242.243 0.0160907H91.6442C91.6442 0.0160907 86.932 -0.305432 83.0843 1.98212C79.2366 4.26968 43.906 30.7241 43.906 30.7241L11.8697 44.091C11.8697 44.091 2.16602 47.6594 2.53498 60.3833H0.811408C0.697254 60.387 0.585091 60.4142 0.48189 60.4631C0.37869 60.5121 0.286658 60.5817 0.211517 60.6677C0.136376 60.7538 0.0797315 60.8543 0.0451048 60.9631C0.0104782 61.072 -0.00139032 61.1868 0.0102371 61.3004V80.4758C-0.0235784 80.8996 0.0265745 81.3259 0.157821 81.7303C0.246261 81.8832 0.378427 82.0062 0.537323 82.0834C0.837763 82.2415 1.14874 82.3839 1.45445 82.5314L4.08988 83.8228C5.77656 84.6451 7.35782 85.4568 9.0445 86.279L9.61902 86.5637C10.7345 87.027 11.9321 87.2601 13.14 87.2489C13.3613 87.2489 15.9493 87.2489 20.4243 87.2489C19.9687 83.8994 20.2353 80.4912 21.2062 77.2533C22.177 74.0154 23.8297 71.0228 26.053 68.4766C28.2764 65.9304 31.0189 63.8895 34.0964 62.4911C37.174 61.0927 40.5151 60.3692 43.8954 60.3692C47.2758 60.3692 50.6169 61.0927 53.6944 62.4911C56.7719 63.8895 59.5145 65.9304 61.7379 68.4766C63.9612 71.0228 65.6138 74.0154 66.5847 77.2533C67.5556 80.4912 67.8222 83.8994 67.3666 87.2489H186.92C186.783 86.2108 186.713 85.165 186.709 84.118C186.7 80.8698 187.359 77.6545 188.646 74.6718C189.932 71.6892 191.818 69.003 194.186 66.7801C196.555 64.5572 199.355 62.8452 202.413 61.7505C205.471 60.6558 208.722 60.2017 211.963 60.4165C215.204 60.6313 218.366 61.5104 221.253 62.9992C224.14 64.488 226.69 66.5546 228.745 69.0706C230.799 71.5866 232.314 74.4982 233.195 77.6245C234.077 80.7509 234.306 84.025 233.868 87.2436H260.565C260.565 87.2436 261.619 87.291 261.619 86.511V79.9224C261.619 79.9224 261.624 78.5994 259.864 77.1341Z" fill="#F1F2F2"/>
<path d="M210.407 60.4463C204.126 60.4463 198.102 62.9412 193.66 67.3823C189.218 71.8233 186.721 77.8469 186.72 84.1283C186.723 85.1753 186.794 86.2211 186.931 87.2592H233.878C234.328 83.9143 234.057 80.5119 233.083 77.2806C232.109 74.0492 230.455 71.0636 228.232 68.5244C226.008 65.9851 223.268 63.951 220.193 62.5586C217.119 61.1662 213.782 60.4478 210.407 60.4516V60.4463Z" fill="#010101"/>
<path style="mix-blend-mode:multiply" d="M259.864 77.1341L257.165 74.9836C257.165 74.9836 256.543 74.6621 256.543 72.5115V43.6325C256.543 43.6325 251.926 14.3845 246.687 2.57773C246.687 2.57773 245.954 0.0160907 242.243 0.0160907H91.6442C91.6442 0.0160907 86.932 -0.305432 83.0843 1.98212C79.2366 4.26968 43.906 30.7241 43.906 30.7241L11.8697 44.091C11.8697 44.091 2.16602 47.6594 2.53498 60.3833H0.811408C0.697254 60.387 0.585091 60.4142 0.48189 60.4631C0.37869 60.5121 0.286658 60.5817 0.211517 60.6677C0.136376 60.7538 0.0797315 60.8543 0.0451048 60.9631C0.0104782 61.072 -0.00139032 61.1868 0.0102371 61.3004V80.4758C-0.0235784 80.8996 0.0265745 81.3259 0.157821 81.7303C0.246261 81.8832 0.378427 82.0062 0.537323 82.0834C0.837763 82.2415 1.14874 82.3839 1.45445 82.5314L4.08988 83.8228C5.77656 84.6451 7.35782 85.4568 9.0445 86.279L9.61902 86.5637C10.7345 87.027 11.9321 87.2601 13.14 87.2489C13.3613 87.2489 15.9493 87.2489 20.4243 87.2489C19.9687 83.8994 20.2353 80.4912 21.2062 77.2533C22.177 74.0154 23.8297 71.0228 26.053 68.4766C28.2764 65.9304 31.0189 63.8895 34.0964 62.4911C37.174 61.0927 40.5151 60.3692 43.8954 60.3692C47.2758 60.3692 50.6169 61.0927 53.6944 62.4911C56.7719 63.8895 59.5145 65.9304 61.7379 68.4766C63.9612 71.0228 65.6138 74.0154 66.5847 77.2533C67.5556 80.4912 67.8222 83.8994 67.3666 87.2489H186.92C186.783 86.2108 186.713 85.165 186.709 84.118C186.7 80.8698 187.359 77.6545 188.646 74.6718C189.932 71.6892 191.818 69.003 194.186 66.7801C196.555 64.5572 199.355 62.8452 202.413 61.7505C205.471 60.6558 208.722 60.2017 211.963 60.4165C215.204 60.6313 218.366 61.5104 221.253 62.9992C224.14 64.488 226.69 66.5546 228.745 69.0706C230.799 71.5866 232.314 74.4982 233.195 77.6245C234.077 80.7509 234.306 84.025 233.868 87.2436H260.565C260.565 87.2436 261.619 87.291 261.619 86.511V79.9224C261.619 79.9224 261.624 78.5994 259.864 77.1341Z" fill="url(#paint0_linear)"/>
<path d="M0.0102539 67.6936H9.77716C9.77716 67.6936 12.2123 67.5935 12.6603 69.2063C13.1083 70.8192 14.2047 75.3733 14.2047 75.3733C14.2047 75.3733 14.7318 76.575 13.451 76.575H0.0102539V67.6936Z" fill="#231F20"/>
<path d="M228.529 84.1283C228.53 87.7138 227.467 91.2191 225.476 94.2008C223.484 97.1825 220.654 99.5067 217.341 100.879C214.029 102.252 210.384 102.611 206.867 101.912C203.35 101.213 200.12 99.4863 197.585 96.9509C195.049 94.4156 193.323 91.1853 192.624 87.6686C191.924 84.1519 192.284 80.5068 193.656 77.1944C195.029 73.882 197.353 71.0511 200.335 69.0597C203.316 67.0684 206.822 66.006 210.407 66.0071C215.213 66.0085 219.821 67.9181 223.219 71.3162C226.617 74.7143 228.527 79.3227 228.529 84.1283V84.1283Z" fill="#010101"/>
<path d="M210.407 97.3106C217.688 97.3106 223.59 91.4087 223.59 84.1282C223.59 76.8478 217.688 70.9458 210.407 70.9458C203.127 70.9458 197.225 76.8478 197.225 84.1282C197.225 91.4087 203.127 97.3106 210.407 97.3106Z" fill="white"/>
<path d="M210.407 88.8563C213.018 88.8563 215.135 86.7395 215.135 84.1284C215.135 81.5172 213.018 79.4004 210.407 79.4004C207.796 79.4004 205.679 81.5172 205.679 84.1284C205.679 86.7395 207.796 88.8563 210.407 88.8563Z" fill="#A6A8AC"/>
<path d="M52.2391 34.0183L84.734 7.66394C86.6025 6.12966 88.9271 5.25841 91.3437 5.18664H113.202C113.202 5.18664 115.579 4.91255 115.215 7.74827C114.852 10.584 111.278 34.4768 111.278 34.4768C111.278 34.4768 110.82 36.9752 107.162 36.9752H53.4831C53.0855 37.0207 52.6834 36.9486 52.3264 36.7677C51.9694 36.5869 51.6734 36.3054 51.4749 35.9579C51.0901 35.22 51.7121 34.4874 52.2391 34.0183Z" fill="#231F20"/>
<path d="M121.62 7.61656V34.3873C121.62 34.3873 121.62 36.9489 123.454 36.9753C125.288 37.0016 232.471 36.9753 232.471 36.9753C232.471 36.9753 237.463 36.7223 237.642 32.922C237.821 29.1217 235.006 9.90412 235.006 9.90412C235.006 9.90412 234.363 5.1867 229.878 5.1867H124.988C124.988 5.1867 121.62 5.00749 121.62 7.61656Z" fill="#231F20"/>
<path d="M69.1219 76.9811C68.9585 76.7228 69.0744 76.5172 69.3749 76.5172H185.603C185.908 76.5172 186.035 76.7333 185.882 76.9969L185.144 78.3093C185.054 78.4481 184.933 78.5639 184.79 78.6472C184.647 78.7305 184.487 78.7791 184.322 78.789H70.8191C70.653 78.7786 70.4913 78.7317 70.3454 78.6515C70.1996 78.5713 70.0734 78.4599 69.9757 78.3251L69.1219 76.9811Z" fill="white"/>
<path d="M258.936 78.7784C259.237 78.7784 259.353 78.5676 259.189 78.3146L257.682 76.9547C257.584 76.8199 257.458 76.7085 257.312 76.6283C257.166 76.5481 257.004 76.5012 256.838 76.4908H234.643C234.337 76.4908 234.226 76.6964 234.385 76.9547L235.238 78.2935C235.336 78.4282 235.462 78.5397 235.608 78.6199C235.754 78.7001 235.916 78.747 236.082 78.7573H258.936V78.7784Z" fill="white"/>
<path d="M57.0884 48.4023H24.5039V48.9294H57.0884V48.4023Z" fill="#D5D7D8"/>
<path d="M57.3519 36.9752H56.8248V66.0071H57.3519V36.9752Z" fill="#D5D7D8"/>
<path d="M43.9059 60.4463C40.5307 60.4433 37.1939 61.1624 34.1196 62.5554C31.0452 63.9484 28.3045 65.983 26.0814 68.5226C23.8583 71.0623 22.2042 74.0481 21.2303 77.2798C20.2564 80.5114 19.9851 83.914 20.4348 87.2591H67.3771C67.8328 83.9125 67.5659 80.507 66.5944 77.2722C65.6229 74.0374 63.9694 71.0483 61.7452 68.5065C59.5211 65.9647 56.7779 63.9291 53.7007 62.5369C50.6234 61.1447 47.2835 60.4282 43.9059 60.4357V60.4463Z" fill="#010101"/>
<path d="M62.0324 84.1283C62.0335 87.7136 60.9712 91.2187 58.9801 94.2003C56.989 97.1819 54.1584 99.506 50.8463 100.879C47.5342 102.252 43.8894 102.611 40.3728 101.912C36.8563 101.214 33.626 99.4876 31.0904 96.9528C28.5549 94.418 26.828 91.1882 26.1281 87.6718C25.4283 84.1555 25.7869 80.5106 27.1587 77.1981C28.5305 73.8856 30.8538 71.0543 33.8348 69.0623C36.8158 67.0703 40.3206 66.0071 43.9059 66.0071C48.7125 66.0071 53.3222 67.9161 56.7214 71.3143C60.1207 74.7126 62.031 79.3218 62.0324 84.1283V84.1283Z" fill="#010101"/>
<path d="M57.0884 84.1282C57.0884 86.7344 56.3156 89.2821 54.8677 91.449C53.4198 93.616 51.3618 95.305 48.954 96.3023C46.5462 97.2997 43.8967 97.5606 41.3406 97.0522C38.7844 96.5437 36.4365 95.2887 34.5936 93.4459C32.7508 91.603 31.4958 89.2551 30.9873 86.6989C30.4789 84.1428 30.7398 81.4933 31.7372 79.0855C32.7345 76.6777 34.4235 74.6197 36.5905 73.1718C38.7574 71.7239 41.3051 70.951 43.9113 70.951C45.6417 70.951 47.3552 71.2919 48.954 71.9541C50.5527 72.6163 52.0053 73.5869 53.2289 74.8105C54.4526 76.0342 55.4232 77.4868 56.0854 79.0855C56.7476 80.6842 57.0884 82.3978 57.0884 84.1282V84.1282Z" fill="white"/>
<path d="M43.9059 88.8563C46.5171 88.8563 48.6339 86.7395 48.6339 84.1284C48.6339 81.5172 46.5171 79.4004 43.9059 79.4004C41.2948 79.4004 39.178 81.5172 39.178 84.1284C39.178 86.7395 41.2948 88.8563 43.9059 88.8563Z" fill="#A6A8AC"/>
<path d="M119.659 87.2698H119.132V4.29587C119.136 4.19086 119.119 4.08611 119.08 3.98817C119.042 3.89022 118.984 3.80118 118.91 3.72661C118.58 3.49107 118.183 3.36734 117.777 3.37347H88.9297C86.3312 3.37347 81.7087 6.98928 81.6612 7.02617C81.3555 7.25809 51.2325 30.218 47.8908 32.9746C45.9645 34.5929 43.905 36.0458 41.7344 37.3178C41.5974 37.3916 28.5889 44.0329 25.0838 45.5246C21.468 47.0636 21.3362 48.2601 21.3309 48.2759H20.8038C20.8038 48.1231 20.9198 46.7369 24.8782 45.0502C28.3622 43.5533 41.3602 36.8962 41.4867 36.854C43.6214 35.6036 45.6457 34.1735 47.5376 32.5793C50.8899 29.8227 81.0182 6.85751 81.3239 6.62559C81.5136 6.47273 86.1309 2.86219 88.9139 2.86219H117.756C118.299 2.85253 118.829 3.02925 119.258 3.36293C119.386 3.48512 119.486 3.63278 119.552 3.79626C119.618 3.95975 119.649 4.13537 119.643 4.31168L119.659 87.2698Z" fill="#D5D7D8"/>
<path d="M49.1187 48.708C48.8499 48.8504 48.8816 48.9663 49.182 48.9663H57.5574C57.6289 48.9664 57.6997 48.9519 57.7654 48.9238C57.8311 48.8957 57.8904 48.8545 57.9397 48.8027C57.989 48.751 58.0273 48.6897 58.0522 48.6227C58.0771 48.5557 58.0881 48.4843 58.0845 48.4129V46.1042C58.0845 45.9644 58.029 45.8304 57.9301 45.7315C57.8313 45.6327 57.6972 45.5771 57.5574 45.5771H55.681C55.3157 45.5863 54.9564 45.6725 54.6268 45.8301L49.1187 48.708Z" fill="#231F20"/>
<path d="M6.45661 48.1387H24.9468C25.08 48.136 25.2115 48.1681 25.3284 48.2319C25.4454 48.2957 25.5436 48.389 25.6134 48.5024C25.6831 48.6159 25.722 48.7456 25.7262 48.8787C25.7304 49.0119 25.6998 49.1438 25.6373 49.2614C25.2578 50.3156 20.2241 56.6775 20.2241 56.6775C20.2241 56.6775 19.1699 58.1533 14.7213 59.3129C10.2727 60.4725 2.53509 60.4093 2.53509 60.4093C2.53509 60.4093 2.008 53.262 6.45661 48.1387Z" fill="white"/>
<path d="M241.284 0H240.73C241.078 1.05417 248.357 23.4606 248.605 45.3294H249.132C248.89 24.0931 242.038 2.34553 241.284 0Z" fill="#D5D7D8"/>
<path d="M256.548 43.6322H250.044C249.614 43.672 249.215 43.8728 248.927 44.1943C248.638 44.5159 248.482 44.9345 248.489 45.3663C248.4 47.0161 248.489 58.6383 248.489 58.6383C248.489 58.6383 248.31 60.7467 250.229 60.8363C252.147 60.9259 256.554 60.8363 256.554 60.8363L256.548 43.6322Z" fill="#231F20"/>
<path d="M70.7295 36.7273C70.7295 35.884 70.7295 33.7019 70.7295 31.9836C70.7295 30.4023 69.4698 30.2916 69.4698 30.2916C69.4698 30.2916 65.1688 30.2916 61.7585 30.2916C60.1249 30.3707 58.5702 31.0175 57.3626 32.1206L52.1603 37.0858H55.8499V38.3613C55.8499 38.6409 55.9609 38.909 56.1586 39.1067C56.3563 39.3044 56.6245 39.4155 56.9041 39.4155H69.6859C69.9655 39.4155 70.2336 39.3044 70.4313 39.1067C70.629 38.909 70.7401 38.6409 70.7401 38.3613V36.7273H70.7295Z" fill="#F1F2F2"/>
<defs>
<linearGradient id="paint0_linear" x1="132.103" y1="20.9045" x2="130.274" y2="96.6995" gradientUnits="userSpaceOnUse">
<stop offset="0.57" stop-color="#D1D3D4" stop-opacity="0"/>
<stop offset="0.63" stop-color="#CFD1D2" stop-opacity="0.08"/>
<stop offset="0.73" stop-color="#CBCDCE" stop-opacity="0.29"/>
<stop offset="0.87" stop-color="#C3C5C7" stop-opacity="0.62"/>
<stop offset="1" stop-color="#BCBEC0" stop-opacity="0.95"/>
</linearGradient>
</defs>
</svg>
