<svg width="24" height="24" viewBox="0 0 24 24" fill="none" xmlns="http://www.w3.org/2000/svg">
<path fill-rule="evenodd" clip-rule="evenodd" d="M13 5.9997V6.9997H15V8.9997H11.5C11.224 8.9997 11 9.2247 11 9.4997C11 9.7757 11.224 9.9997 11.5 9.9997H12.5C13.878 9.9997 15 11.1217 15 12.4997C15 13.7067 14.14 14.7167 13 14.9487V15.9997H11V14.9997H9V12.9997H12.5C12.776 12.9997 13 12.7757 13 12.4997C13 12.2247 12.776 11.9997 12.5 11.9997H11.5C10.122 11.9997 9 10.8777 9 9.4997C9 8.2927 9.86 7.2827 11 7.0507V5.9997H13ZM12 19.654C14.13 17.657 18 13.338 18 10C18 6.691 15.309 4 12 4C8.691 4 6 6.691 6 10C6 13.338 9.87 17.657 12 19.654ZM12 2C16.411 2 20 5.588 20 10C20 14.412 15.354 19.442 12 22.317C8.644 19.44 4 14.41 4 10C4 5.588 7.589 2 12 2Z" fill="white"/>
</svg>
