<svg width="24" height="24" viewBox="0 0 24 24" fill="none" xmlns="http://www.w3.org/2000/svg">
<path fill-rule="evenodd" clip-rule="evenodd" d="M12 4C14.2 4 16 5.8 16 8C16 10.2 14.2 12 12 12C9.8 12 8 10.2 8 8C8 5.8 9.8 4 12 4ZM12 6C10.9 6 10 6.9 10 8C10 9.1 10.9 10 12 10C13.1 10 14 9.1 14 8C14 6.9 13.1 6 12 6Z" fill="white"/>
<path fill-rule="evenodd" clip-rule="evenodd" d="M6 18V17C6 17 6.1 13 12 13C17.9 13 18 17 18 17V18C18 19.1 17.1 20 16 20H8C6.9 20 6 19.1 6 18ZM12 15C8.2 15 8 16.8 8 17V18H16V17C16 16.8 15.8 15 12 15Z" fill="white"/>
</svg>
