<svg width="27" height="20" viewBox="0 0 27 20" fill="none" xmlns="http://www.w3.org/2000/svg">
<path fill-rule="evenodd" clip-rule="evenodd" d="M11.0549 6C11.0186 6.32833 11 6.66199 11 7C11 7.33801 11.0186 7.67167 11.0549 8H2V10H11.5121C11.7638 10.7121 12.1025 11.383 12.5155 12H2V18H17.997L17.9977 15.7765C18.6417 15.9228 19.3118 16 20 16V18C20 19.103 19.103 20 18 20H2C0.897 20 0 19.103 0 18V8C0 6.898 0.897 6 2 6H11.0549V6ZM20 2C17.243 2 15 4.243 15 7C15 9.757 17.243 12 20 12C22.757 12 25 9.757 25 7C25 4.243 22.757 2 20 2ZM20 14C16.14 14 13 10.86 13 7C13 3.14 16.14 0 20 0C23.86 0 27 3.14 27 7C27 10.86 23.86 14 20 14ZM20.0982 7.87449H20.0982L18.4125 9.5H17.9078C17.4474 9.5 17.4029 9.49565 17.4009 9.45052C17.3997 9.42331 17.3997 9.20385 17.4009 8.96283L17.4031 8.52461L19.088 6.89902L20.7729 5.27343L21.2784 5.7612L21.7839 6.24898L20.0982 7.87449ZM22.6991 5.36569C22.5337 5.52479 22.3918 5.65497 22.3838 5.65497C22.3758 5.65497 22.1455 5.43873 21.8719 5.17444L21.3745 4.69391L21.6812 4.39696C21.8499 4.23363 22.0016 4.1 22.0181 4.1C22.0571 4.1 23 5.01033 23 5.04794C23 5.06359 22.8646 5.20658 22.6991 5.36569V5.36569Z" fill="#688AF5"/>
</svg>
