<svg width="24" height="24" viewBox="0 0 24 24" fill="none" xmlns="http://www.w3.org/2000/svg">
<path fill-rule="evenodd" clip-rule="evenodd" d="M12 23C18.3513 23 23.5 17.8513 23.5 11.5C23.5 5.14873 18.3513 0 12 0C5.64873 0 0.5 5.14873 0.5 11.5C0.5 17.8513 5.64873 23 12 23Z" fill="#445281"/>
<path fill-rule="evenodd" clip-rule="evenodd" d="M10.9005 24L10.9129 14.8533H9.05601C8.81468 14.8533 8.6188 14.658 8.61806 14.4168L8.60901 12.1129C8.60803 11.8704 8.80465 11.6731 9.04714 11.6731H10.9007V9.44703C10.9007 6.86388 12.4784 5.45727 14.7828 5.45727H16.6739C16.9156 5.45727 17.112 5.6534 17.112 5.8954V7.83787C17.112 8.07986 16.9158 8.276 16.6741 8.276L15.5135 8.27667C14.2603 8.27667 14.0176 8.87203 14.0176 9.74615V11.6733H16.7713C17.0339 11.6733 17.2374 11.9024 17.2063 12.1628L16.9333 14.4667C16.9072 14.6872 16.7202 14.8533 16.4983 14.8533H14.03L14.0176 24.0002L10.9005 24Z" fill="white"/>
</svg>
