<svg width="21" height="22" viewBox="0 0 21 22" fill="none" xmlns="http://www.w3.org/2000/svg">
<path fill-rule="evenodd" clip-rule="evenodd" d="M20.9804 11.0298C20.9804 10.2995 20.9215 9.56519 20.7959 8.84671H10.7198V12.9839H16.4899C16.2505 14.3182 15.4812 15.4985 14.3546 16.2486V18.933H17.797C19.8185 17.0618 20.9804 14.2984 20.9804 11.0298Z" fill="#4285F4"/>
<path fill-rule="evenodd" clip-rule="evenodd" d="M10.7198 21.5266C13.6009 21.5266 16.0306 20.5752 17.8009 18.933L14.3584 16.2486C13.4007 16.9039 12.1642 17.275 10.7237 17.275C7.93676 17.275 5.57377 15.384 4.72592 12.8417H1.17358V15.6091C2.98704 19.237 6.68069 21.5266 10.7198 21.5266Z" fill="#34A853"/>
<path fill-rule="evenodd" clip-rule="evenodd" d="M4.722 12.8417C4.27452 11.5074 4.27452 10.0626 4.722 8.72828V5.96097H1.17359C-0.341554 8.99673 -0.341554 12.5733 1.17359 15.6091L4.722 12.8417Z" fill="#FBBC04"/>
<path fill-rule="evenodd" clip-rule="evenodd" d="M10.7198 4.29111C12.2427 4.26742 13.7147 4.84378 14.8177 5.90176V5.90176L17.8676 2.83442C15.9364 1.0106 13.3732 0.00789524 10.7198 0.0394766C6.68069 0.0394766 2.98704 2.32912 1.17358 5.96097L4.722 8.72828C5.56592 6.18204 7.93284 4.29111 10.7198 4.29111Z" fill="#EA4335"/>
</svg>
