<svg xmlns="http://www.w3.org/2000/svg" width="256" height="256"><path fill-opacity=".016" d="M0 128.004v128.004l128.25-.254 128.25-.254.254-127.75L257.008 0H0v128.004m.485.496c0 70.4.119 99.053.265 63.672.146-35.38.146-92.98 0-128C.604 29.153.485 58.1.485 128.5" fill="#1976D2" fill-rule="evenodd"/><path fill-opacity=".366" d="M0 128.004v128.004l128.25-.254 128.25-.254.254-127.75L257.008 0H0v128.004m.485.496c0 70.4.119 99.053.265 63.672.146-35.38.146-92.98 0-128C.604 29.153.485 58.1.485 128.5m21.212-15.863c-1.933 1.932-.407 3.272 4.053 3.558l4.75.305.5 12.5c.467 11.667.633 12.5 2.5 12.5s2.033-.833 2.5-12.5l.5-12.5 4.812-.307c3.892-.249 4.751-.631 4.488-2-.278-1.454-1.953-1.733-11.865-1.973-6.348-.154-11.855.033-12.238.417m28.756.626c-.283.736-.388 7.39-.233 14.787l.28 13.45h9.486c8.24 0 9.531-.23 9.824-1.75.297-1.542-.562-1.75-7.237-1.75H55V129.091l6.74-.295c5.483-.241 6.802-.622 7.073-2.046.292-1.533-.543-1.75-6.74-1.75H55v-9h7.573c6.674 0 7.534-.208 7.239-1.75-.285-1.491-1.706-1.793-9.59-2.038-7.014-.218-9.38.037-9.769 1.051m25.014-.036c-.291.755-.402 7.426-.247 14.823l.28 13.45 9.25.288c8.734.271 9.25.173 9.25-1.75 0-1.856-.624-2.038-6.97-2.038h-6.97l-.28-12.738c-.247-11.214-.49-12.778-2.033-13.074-.964-.185-1.99.283-2.28 1.039m23.14.355c-.909 2.369-.702 25.72.242 27.208 1.266 1.995 19.651 1.256 19.651-.79 0-1.156-1.722-1.615-7.5-2l-7.5-.5-.305-4.205-.306-4.205 7.306-.295c5.696-.23 7.305-.625 7.305-1.795 0-1.143-1.667-1.619-7-2l-7-.5v-8l7.5-.5c4.125-.275 7.388-.838 7.25-1.25-.138-.412-.25-1.2-.25-1.75 0-.596-3.798-1-9.393-1-7.643 0-9.506.295-10 1.582m24.873.668c-.307 1.237-.428 7.87-.269 14.738.262 11.302.468 12.522 2.169 12.848 2.579.495 3.587-1.485 3.605-7.086L129 130h6.045c7.485 0 10.955-2.699 10.955-8.52 0-7.279-3.512-9.48-15.13-9.48-6.253 0-6.879.191-7.39 2.25m33.393-.625c-4.189 2.693-6.315 7.196-6.315 13.375 0 10.218 5.713 15.709 15.377 14.78 4.181-.402 5.894-1.147 8.408-3.661 3.014-3.014 3.157-3.518 3.157-11.119 0-7.624-.136-8.097-3.202-11.163-2.733-2.734-4.05-3.254-9-3.552-4.207-.253-6.519.114-8.425 1.34m27.603-.424c-.295.77-.411 7.452-.256 14.849.272 13.089.34 13.459 2.53 13.77 2.123.301 2.25-.026 2.25-5.811v-6.13l3.741.311c3.298.273 4.208.991 7.685 6.06 2.359 3.438 4.674 5.75 5.759 5.75 2.848 0 2.191-3.354-1.638-8.371-3.221-4.219-3.321-4.566-1.489-5.147 4.922-1.562 6.022-10.288 1.782-14.128-2.703-2.448-19.502-3.399-20.364-1.153m26.221-.564c-1.933 1.932-.407 3.272 4.053 3.558l4.75.305.5 12.5c.467 11.667.633 12.5 2.5 12.5s2.033-.833 2.5-12.5l.5-12.5 4.812-.307c3.892-.249 4.751-.631 4.488-2-.278-1.454-1.953-1.733-11.865-1.973-6.348-.154-11.855.033-12.238.417M129 121v5h4.8c5.484 0 7.2-1.231 7.2-5.165 0-3.378-2.39-4.835-7.934-4.835H129v5m30.061-3.25c-2.731 2.213-4.101 8.138-3.005 13 1.338 5.934 6.716 8.81 12.399 6.629 3.911-1.501 5.995-11.789 3.382-16.695-2.578-4.839-8.691-6.243-12.776-2.934m30.606-1.083c-.367.366-.667 2.616-.667 5V126h5.345c3.908 0 5.79-.492 7-1.829 2.268-2.506 2.075-4.764-.568-6.614-2.212-1.55-9.84-2.161-11.11-.89" fill="#1976D2" fill-rule="evenodd"/><path fill-opacity=".17" d="M1 128v127h254V1H1v127m74.501-15.359c-1.286 1.287-1.508 3.927-1.279 15.208L74.5 141.5h10c9.333 0 10-.133 10-2 0-1.782-.762-2.031-7-2.287l-7-.286.32-10.118c.176-5.564.067-11.123-.242-12.353-.732-2.919-3.119-3.772-5.077-1.815m84.142-.657C153.468 113.929 150 119.33 150 127c0 11.321 8.225 17.901 18.814 15.05 11.188-3.013 13.907-21.128 4.207-28.035-3.277-2.333-9.445-3.27-13.378-2.031m-139.251 1.438c-.97 2.526.549 3.578 5.167 3.578H30v11.429c0 9.056.326 11.754 1.571 13 .865.864 1.733 1.571 1.929 1.571.196 0 1.064-.707 1.929-1.571C36.673 140.184 37 137.49 37 128.483V117.11l4.75-.305c3.982-.256 4.75-.628 4.75-2.305 0-1.881-.76-2.017-12.77-2.28-10.54-.231-12.869-.021-13.338 1.202m29.215.16c-.79 2.059-.79 24.777 0 26.836.497 1.294 2.396 1.582 10.441 1.582 9.975 0 12.197-.794 9.916-3.544-.844-1.016-3.285-1.456-8.086-1.456H55v-8h6.941c7.142 0 9.131-1.003 7.023-3.544-.827-.996-3.223-1.456-7.586-1.456H55v-7h6.8c6.877 0 9.48-1.107 8.515-3.622-.826-2.153-19.875-1.966-20.708.204m48.845-.318c-.282.735-.387 7.389-.232 14.786l.28 13.45 9.767.286c8.294.244 9.863.04 10.396-1.351.937-2.44-1.432-3.403-8.413-3.42L104 137V129.091l6.75-.295c5.985-.262 6.75-.523 6.75-2.296 0-1.773-.765-2.034-6.75-2.296l-6.75-.295v-6.821l7.25-.294c6.485-.263 7.25-.505 7.25-2.294 0-1.844-.762-2.022-9.767-2.286-7.436-.218-9.89.032-10.281 1.05m25.215-.597c-.367.366-.667 7.068-.667 14.893 0 12.215.23 14.314 1.627 14.85 2.77 1.063 4.373-1.331 4.373-6.532V131h4.351c9.42 0 14.531-4.483 13.2-11.578-1.051-5.602-4.489-7.422-14.019-7.422-4.509 0-8.499.3-8.865.667m61 0c-.367.366-.667 7.068-.667 14.893 0 12.215.23 14.314 1.627 14.85 2.864 1.099 4.373-1.328 4.373-7.032 0-5.07.143-5.378 2.5-5.378 2.824 0 4.594 1.595 9.229 8.317 3.489 5.058 4.353 5.494 6.282 3.17 1.038-1.251.669-2.417-2.139-6.75l-3.394-5.237 2.761-2.686c3.759-3.657 3.808-8.939.115-12.362-2.387-2.212-3.498-2.452-11.333-2.452-4.778 0-8.988.3-9.354.667m24.725.755c-.97 2.526.549 3.578 5.167 3.578H219v11.429c0 9.05.327 11.755 1.569 12.998 1.185 1.184 2.043 1.316 3.5.536 1.742-.932 1.931-2.2 1.931-12.943v-11.91l4.75-.305c3.982-.256 4.75-.628 4.75-2.305 0-1.881-.76-2.017-12.77-2.28-10.54-.231-12.869-.021-13.338 1.202m-47.038 3.349c-3.407.541-5.613 3.815-6.042 8.969-.47 5.645 1.15 9.234 5.003 11.082 3.905 1.872 7.779.359 9.933-3.882 4.319-8.498-.622-17.48-8.894-16.169M129 121.5v4.5h4.429c4.693 0 7.571-1.852 7.571-4.871 0-2.889-2.163-4.129-7.2-4.129H129v4.5m61-.5v4.1l5.75-.3 5.75-.3v-7l-5.75-.3-5.75-.3v4.1" fill="#1976D2" fill-rule="evenodd"/><path fill-opacity=".106" d="M1.389 2.429c-.36.938-.379 35.988-.043 77.888.336 41.901.621 98.183.633 125.072L2 254.279l34.513-.486c18.983-.268 34.797-.77 35.143-1.116.346-.346.06-1.315-.636-2.153-.967-1.165-.991-1.854-.101-2.927.671-.807.763-1.55.218-1.75-.52-.191-1.102-1.472-1.292-2.847-.19-1.375-.795-2.848-1.345-3.274-1.286-.995 3.595-.429 5.25.608.688.431 1.25.477 1.25.103 0-.375.719-.085 1.598.644 1.551 1.288 5.402 2.341 5.402 1.478 0-.236-.449-1.609-.997-3.051-.663-1.743-.663-2.416 0-2.006 1.422.879 1.235-.862-.253-2.361-1.002-1.01-.914-1.132.444-.615 1.225.467 1.669.137 1.604-1.19-.177-3.572 1.2-15.524 1.921-16.672.402-.64.593-2.001.425-3.023-.21-1.275.087-1.616.945-1.086.873.54 1.062.281.625-.859-.345-.898-.242-1.869.227-2.16.47-.29.782-2.065.693-3.944-.088-1.88.183-3.205.603-2.946.42.26.763-.215.763-1.056 0-1.002.601-1.334 1.75-.964 1.482.476 1.52.395.25-.532-1.265-.922-1.283-1.234-.113-1.988.831-.535 1.194-1.902.906-3.408-.335-1.753-.097-2.368.783-2.03.856.328 1.173-.348.982-2.092-.181-1.646.209-2.576 1.08-2.576.749 0 1.41-.562 1.468-1.25.379-4.449.29-5.327-.606-5.985-.565-.415-.238-.741.75-.75.963-.008 1.75-.465 1.75-1.015 0-.55.73-1 1.622-1 1.34 0 1.403-.265.359-1.523-1.073-1.293-.978-1.416.628-.813 1.731.65 1.764.551.391-1.169-1.203-1.507-1.219-1.709-.08-1.023 1.065.642 1.26.44.781-.808-.351-.915-.202-1.664.33-1.664.533 0 .898-.338.81-.75-.49-2.315 5.39-10.676 6.643-9.445.388.382.551-.05.361-.96-.418-2.007 3.965-6.072 5.534-5.132.617.369.503-.09-.251-1.021-.895-1.103-.982-1.692-.25-1.692.617 0 1.122-.75 1.122-1.667 0-.916.301-1.365.669-.997.889.889 4.331-2.282 4.331-3.991 0-1.372 1.088-1.722 4.31-1.387 3.172.33 4.69-1.924 4.69-6.96v-4.758l6.149-.444c5.376-.389 6.507-.846 9-3.636 3.239-3.625 3.703-8.155 1.246-12.16-.97-1.582-1.265-1.766-.802-.5 1.896 5.19 1.611 9.152-.869 12.034-2.139 2.487-3.302 2.908-9.043 3.274l-6.588.419-.296 5.637c-.278 5.266-.461 5.636-2.797 5.636h-2.5l-.276-15.25c-.19-10.467.064-15.25.809-15.25.597 0 .871-.347.609-.77-.262-.424 3.424-.467 8.191-.096 4.767.371 9.016.459 9.442.196.426-.263.651.117.5.846-.151.728.467 1.33 1.373 1.338 3.002.025 5.639 4.509 5.262 8.943-.344 4.042-.344 4.042.439.543.431-1.925 1.403-4.479 2.161-5.675 1.994-3.149 8.159-6.304 12.626-6.461 2.57-.091 3.067-.287 1.483-.587-4.374-.828-9.094.764-12.569 4.24-2.74 2.74-3.393 3.042-3.278 1.521.079-1.045.461-1.818.85-1.719.389.1 2.658-1.409 5.042-3.353 2.385-1.943 5.011-3.507 5.836-3.474.825.033 2.096-.627 2.824-1.466.728-.839 1.039-.964.691-.276-.348.687-.156 1.25.426 1.25s1.059-.723 1.059-1.607c0-1.018.55-1.396 1.5-1.031.825.316 1.5.133 1.5-.408 0-1.51 6.076-4.862 7.69-4.243.89.342 1.639-.251 1.983-1.57.305-1.165.849-1.936 1.21-1.713.361.223 2.897-.383 5.636-1.347 2.74-.963 5.544-1.563 6.231-1.333.687.23 1.25-.186 1.25-.924 0-.739 1.013-1.973 2.25-2.744 1.954-1.217 2.093-1.211 1.057.043-.839 1.016-.885 1.878-.155 2.911.904 1.278.982 1.274.614-.034-.232-.825.479-2.366 1.58-3.424 1.575-1.514 1.869-1.578 1.379-.301-.438 1.141-.194 1.458.82 1.069.794-.304 1.147-1.033.785-1.619-.402-.65-.059-.835.882-.474.846.325 2.833-.099 4.414-.941 1.581-.843 3.999-1.674 5.374-1.846 1.375-.172 3.988-.773 5.807-1.335 1.819-.562 3.957-.773 4.75-.469.794.305 1.443.168 1.443-.303s1.532-.857 3.405-.857c1.872 0 3.195.338 2.94.75-1.053 1.705.973.583 2.711-1.5 1.636-1.96 1.882-2.02 1.911-.465.029 1.552.327 1.623 2.283.54 1.237-.684 2.779-1.138 3.425-1.008.646.13 1.458-.223 1.804-.783.362-.586 1.602.112 2.918 1.641 2.118 2.463 2.446 2.548 4.435 1.156l2.147-1.504-2.555-1.367c-1.955-1.047-2.728-1.087-3.293-.171-.469.758-1.543-.457-2.935-3.323-2.685-5.525-2.684-5.466-.089-5.466 1.493 0 1.934.452 1.511 1.552-.341.89-.173 1.291.393.941.544-.336.989-1.259.989-2.052 0-1.991 2.918-1.817 3.7.219 1.736 4.524 2.596-5.718 3.059-36.41L254.26 2l-50.38-.018c-27.709-.01-84.458-.297-126.108-.639C6.983.763 2.001.834 1.389 2.429M238.666 69c.357 1.375.653 3.063.658 3.75.005.688.411 1.25.902 1.25.49 0 .571.52.179 1.155-.475.768-.271.88.61.335.962-.594 1.15-.362.686.846-.351.915-.176 1.664.389 1.664.566 0 .71.563.322 1.25-.531.941-.402.971.522.119.963-.887.779-2.011-.853-5.21-2.374-4.655-2.561-5.574-.926-4.564.721.446.882.274.43-.457-.398-.644-1.104-.935-1.569-.648-.465.287-1.104-.043-1.421-.734-.317-.691-.285-.131.071 1.244M249 81c0 .55.477 1 1.059 1s.781-.45.441-1-.816-1-1.059-1-.441.45-.441 1m-139 29.702c-13.107.532-12-.964-12 16.21 0 12.641.238 14.965 1.582 15.481 2.353.903 16.715.705 18.223-.251.756-.48 1.143-2.052.92-3.735-.373-2.811-.588-2.917-6.492-3.203-5.383-.261-6.157-.557-6.533-2.5-.362-1.865-.449-1.788-.564.5-.133 2.654-.009 2.711 6.614 3.054l6.75.35-7.25.196L104 137v-7.545l6.414.538c3.528.296 6.201.194 5.941-.227-.26-.422.035-.766.656-.766.62 0 .984-1.013.809-2.25-.291-2.044-.937-2.277-7.07-2.546l-6.75-.295v-6.821l7.25-.294c6.653-.27 7.276-.479 7.57-2.544.175-1.237-.189-2.25-.809-2.25-.621 0-.851-.45-.511-1 .34-.55.479-.911.309-.801-.17.109-3.684.335-7.809.503m75.048.181c-.799.542-1.7.832-2.003.645-.302-.187-.627 1.98-.721 4.816l-.171 5.156.902-4.427c.496-2.436 1.474-4.791 2.173-5.235 1.804-1.145 11.581-1.019 15.993.206 4.591 1.276 6.779 4.238 6.779 9.179 0 3.695-2.651 7.777-5.051 7.777-.578 0 .067 1.465 1.433 3.257 1.366 1.791 3.186 4.603 4.045 6.25.858 1.646 1.563 2.399 1.567 1.673.003-.726-1.348-3.288-3.004-5.694l-3.01-4.375 2.51-2.51c1.8-1.8 2.51-3.586 2.51-6.313v-3.802l4.5.357 4.5.358v11.245c0 9.623.264 11.483 1.829 12.899 2.343 2.121 3.471 2.085 5.516-.174 1.332-1.472 1.655-4.008 1.655-13V118h3.8c4.042 0 6.24-1.415 6.137-3.95-.039-.951-.413-.68-.968.7-.75 1.866-1.672 2.25-5.406 2.25h-4.501l-.281 12.143c-.232 10.044-.569 12.324-1.947 13.192-1.208.76-2.102.687-3.25-.265-1.283-1.065-1.584-3.575-1.584-13.192V117h-4.532c-3.766 0-4.685-.381-5.437-2.25-.497-1.237-.933-1.674-.968-.97-.042.852-1.056.546-3.03-.914-2.299-1.7-4.716-2.28-10.75-2.58-4.281-.213-8.437.056-9.235.597m25.294-.118c-.636.404 3.189.608 8.5.453 14.412-.42 16.082-.901 3.658-1.053-6.05-.074-11.521.196-12.158.6m-189.19 1.12c-.742.47-1.188 1.701-.991 2.735.279 1.468 1.39 1.947 5.068 2.184l4.71.303.281 12.09c.231 9.994.569 12.271 1.946 13.138 1.208.76 2.102.687 3.25-.265 1.283-1.065 1.584-3.575 1.584-13.192V117h4.531c4.9 0 6.695-1.817 4.458-4.513-.958-1.155-3.719-1.484-12.361-1.472-6.121.009-11.735.4-12.476.87m29.598.195c-1.534.894-1.75 2.737-1.75 14.935C49 143.46 48.66 143 60.812 143c5.841 0 8.273-.397 9.188-1.5 2.334-2.813-.524-4.5-7.622-4.5H56l-.001-3.75-.002-3.75 5.252.314c5.892.353 9.497-1.427 8.445-4.169-.497-1.294-2.024-1.645-7.163-1.645H56v-7h7.031c5.603 0 7.16-.334 7.663-1.645 1.112-2.898-2.476-4.357-10.635-4.325-4.158.017-8.347.489-9.309 1.05m24.45.12c-1.719 1.719-1.669 28.166.056 29.597 1.43 1.187 18.808 2.102 18.093.953-.257-.412.041-.75.662-.75.62 0 .984-1.012.809-2.25-.291-2.044-.937-2.277-7.07-2.546l-6.75-.295v-11.755C81 113.657 80.343 111 77.5 111c-.605 0-1.64.54-2.3 1.2m96.645.852c4.482 2.726 6.581 6.604 7.253 13.4l.597 6.048.153-5.3c.161-5.601-1.297-9.486-4.722-12.586-1.143-1.035-1.908-2.159-1.698-2.498.209-.339-.747-.684-2.125-.766-2.444-.147-2.431-.106.542 1.702M120 114.559c0 .857.45 1.281 1 .941.55-.34 1-1.041 1-1.559s-.45-.941-1-.941-1 .702-1 1.559m9.175 7.191l.174 4.75.383-4.25.383-4.25h4.336c2.931 0 4.521.486 4.911 1.5.823 2.146-.307 4.5-2.16 4.5-1.317 0-1.273-.227.26-1.348 2.56-1.872 1.088-3.652-3.021-3.652-3.266 0-3.441.178-3.441 3.5 0 2.794.39 3.5 1.935 3.5 5.537 0 8.965-3.45 7.026-7.072-.806-1.507-2.117-1.928-5.996-1.928H129l.175 4.75M164 117.738c4.265.51 6.753 2.596 7.294 6.116l.406 2.646.15-2.75c.218-3.997-2.999-6.786-7.6-6.59l-3.75.16 3.5.418M190 121v4.105l5.147-.303c9.564-.561 9.564-7.043 0-7.604l-5.147-.303V121m-85-.5c0 2.42.2 2.494 6.25 2.311l6.25-.189-5.75-.361c-4.095-.257-5.75-.764-5.75-1.763 0-1.016 1.723-1.5 6.25-1.758l6.25-.355-6.75-.192c-6.585-.188-6.75-.132-6.75 2.307m86 .5c0 3.086.036 3.107 4.75 2.805 4.319-.277 4.75-.532 4.75-2.805s-.431-2.528-4.75-2.805c-4.714-.302-4.75-.281-4.75 2.805m-34.556 3.446c-.356 1.896-.256 4.618.221 6.05.682 2.046.868 1.307.868-3.446 0-3.328-.099-6.05-.221-6.05s-.512 1.551-.868 3.446m-7.249 6.054c.02 1.65.244 2.204.498 1.231.254-.973.237-2.323-.037-3-.274-.677-.481.119-.461 1.769m21.805-.071c0 1.335-.707 3.135-1.571 4-1.879 1.878-8.457 2.081-10.431.321-1.192-1.063-1.204-.989-.077.5 1.881 2.486 8.492 2.337 11.079-.25 1.746-1.746 2.872-7 1.5-7-.275 0-.5 1.093-.5 2.429M190.3 136c0 3.025.187 4.262.416 2.75.229-1.512.229-3.988 0-5.5s-.416-.275-.416 2.75m3.489-4.289c1.398.268 3.693 2.552 5.892 5.864 3.636 5.476 6.04 7.772 2.802 2.675-4.372-6.88-6.652-9.246-8.784-9.114-2.168.134-2.167.143.09.575m-16.999 4.333c-.92 1.603-3.162 3.822-4.982 4.931-1.819 1.11-2.78 2.019-2.135 2.021 1.571.005 7.107-4.717 8.431-7.19 1.7-3.177.524-2.965-1.314.238m-27.145-.562c-.344.898-.203 1.363.316 1.042 1.02-.631 3.263 2.813 2.504 3.845-.256.347-.181.422.166.166.348-.255 1.585-.006 2.75.555 2.047.986 2.054.968.199-.519-1.056-.847-2.683-2.703-3.616-4.126-1.41-2.15-1.801-2.312-2.319-.963m-60.395.207c.963.252 2.537.252 3.5 0 .963-.251.175-.457-1.75-.457s-2.713.206-1.75.457m30.971 3.561c-.638 2.479-1.653 3.533-4.278 4.444-2.251.78-2.741 1.213-1.416 1.25 1.116.031 3.029-.645 4.252-1.502 1.224-.857 2.58-1.338 3.014-1.07.434.268.609-1.056.389-2.942-.499-4.272-.899-4.309-1.961-.18m-24.063.75c0 1.375.227 1.938.504 1.25.278-.687.278-1.812 0-2.5-.277-.687-.504-.125-.504 1.25m86.872.628c-.044 1.65 2.696 3.644 4.186 3.045.827-.332.679-.543-.416-.594-.935-.043-2.159-.866-2.72-1.829-.561-.963-1.033-1.243-1.05-.622m-23.915 2.464c1.297.822 9.707 1.338 8.802.541-.229-.202-2.615-.603-5.302-.892-2.986-.322-4.347-.185-3.5.351m-52.972 22.798c-.834.529-.971 1.098-.355 1.479.552.341 1.26-.053 1.576-.875.662-1.727.6-1.757-1.221-.604m-10.684 24.177c-.363.586-.445 1.281-.183 1.543s.743-.218 1.069-1.067c.676-1.762.1-2.072-.886-.476m-5.38 5.516c.048 1.165.285 1.402.604.605.289-.722.253-1.585-.079-1.917-.332-.332-.568.258-.525 1.312m16 1c.048 1.165.285 1.402.604.605.289-.722.253-1.585-.079-1.917-.332-.332-.568.258-.525 1.312M70.51 242.016c.346.559 1.047.758 1.559.441 1.387-.857 1.129-1.457-.628-1.457-.857 0-1.276.457-.931 1.016m3.986-.009c-.343.554.081 1.277.941 1.607.859.33 1.615 1.564 1.679 2.743.096 1.768.198 1.827.584.34.371-1.431.759-1.561 1.884-.628 1.015.843 1.416.858 1.416.053 0-.617-.477-1.122-1.059-1.122s-.738-.52-.346-1.155c.421-.68.277-.884-.35-.496-1.407.869-4.388-.308-3.68-1.454.304-.492.328-.895.053-.895s-.78.453-1.122 1.007M81 250c-1.236 2.31-1.332 2.207 2.25 2.425 1.738.106 2.75-.334 2.75-1.196 0-.931-.714-1.167-2.25-.745-2.187.602-2.195.576-.309-.932 1.663-1.33 1.704-1.552.285-1.552-.91 0-2.137.9-2.726 2" fill="#1976D2" fill-rule="evenodd"/></svg>