<svg width="24" height="24" viewBox="0 0 24 24" fill="none" xmlns="http://www.w3.org/2000/svg">
<path fill-rule="evenodd" clip-rule="evenodd" d="M20.1818 3.80952C21.1855 3.80952 22 4.62019 22 5.61905V19.1905C22 20.1893 21.1855 21 20.1818 21H3.81818C2.81455 21 2 20.1893 2 19.1905V5.61905C2 4.62019 2.81455 3.80952 3.81818 3.80952H5.63636V5.61905H3.81818V19.1905H20.1818V5.61905H17.4545V7.42857H15.6364V2H17.4545V3.80952H20.1818ZM8.36364 5.61905V7.42857H6.54545V2H8.36364V3.80952H14.7273V5.61905H8.36364ZM9.27273 9.23764V12.8567H5.63636V9.23764H9.27273ZM13.8182 9.23764V12.8567H10.1818V9.23764H13.8182ZM14.7273 12.8567V9.23764H18.3636V12.8567H14.7273ZM5.63636 17.3805V13.7615H9.27273V17.3805H5.63636ZM10.1818 17.3805V13.7615H13.8182V17.3805H10.1818Z" fill="#688AF5"/>
</svg>
