<svg width="20" height="20" viewBox="0 0 20 20" fill="none" xmlns="http://www.w3.org/2000/svg">
<path fill-rule="evenodd" clip-rule="evenodd" d="M13.186 4.42585L13.786 3.82752C14.4235 3.19085 15.5352 3.19085 16.1727 3.82752L16.171 3.82585C16.8085 4.46335 16.8085 5.57502 16.171 6.21335L15.5727 6.81252L13.186 4.42585ZM4.30433 13.7184L5.951 14.0475L6.281 15.6942L3.64517 16.3534L4.30433 13.7184ZM6.386 12.4342L5.3785 12.2334L12.0077 5.60502L12.6127 6.20919L6.386 12.4342ZM7.56433 13.6134L13.7902 7.38752L14.3952 7.99085L7.766 14.62L7.56433 13.6134ZM17.351 2.64835C16.7168 2.01502 15.8752 1.66669 14.9785 1.66669C14.0835 1.66669 13.2402 2.01502 12.6068 2.64919L3.09933 12.1567C2.99267 12.2634 2.91683 12.3967 2.88017 12.5434L1.691 17.2967C1.621 17.5809 1.70433 17.8817 1.911 18.0875C2.11683 18.295 2.4185 18.3784 2.70183 18.3075L7.456 17.1184C7.60183 17.0825 7.736 17.0059 7.84267 16.8992L17.3502 7.39169C17.9835 6.75835 18.3318 5.91502 18.3318 5.02002C18.3318 4.12419 17.9835 3.28085 17.3493 2.64752L17.351 2.64835Z" fill="#688AF5"/>
</svg>
