<svg width="24" height="24" viewBox="0 0 24 24" fill="none" xmlns="http://www.w3.org/2000/svg">
<path fill-rule="evenodd" clip-rule="evenodd" d="M12 19.3777C14.13 17.4119 18 13.1605 18 9.87479C18 6.61758 15.309 3.9687 12 3.9687C8.691 3.9687 6 6.61758 6 9.87479C6 13.1605 9.87 17.4119 12 19.3777ZM12 2C16.411 2 20 5.53283 20 9.87479C20 14.2177 15.354 19.169 12 22C8.644 19.167 4 14.2158 4 9.87479C4 5.53283 7.589 2 12 2ZM14 9.80799C14 10.8747 13.103 11.744 12 11.744C10.897 11.744 10 10.8747 10 9.80799C10 8.74126 10.897 7.872 12 7.872C13.103 7.872 14 8.74126 14 9.80799Z" fill="#688AF5"/>
</svg>
